<mxfile host="app.diagrams.net" modified="2023-04-17T22:20:07.098Z" agent="Mozilla/5.0 (Macintosh; Intel Mac OS X 10_15_7) AppleWebKit/537.36 (KHTML, like Gecko) Chrome/112.0.0.0 Safari/537.36" etag="_J0uDZKwweoKxIdBIFc-" version="21.1.8" type="github">
  <diagram name="Page-1" id="df3z5cDe4c1IH2QEwyE7">
    <mxGraphModel dx="1430" dy="725" grid="1" gridSize="10" guides="1" tooltips="1" connect="1" arrows="1" fold="1" page="1" pageScale="1" pageWidth="1100" pageHeight="850" math="0" shadow="0">
      <root>
        <mxCell id="0" />
        <mxCell id="1" parent="0" />
        <mxCell id="uVOMfWOmMJlPaPXSzogf-1" value="" style="shape=image;verticalLabelPosition=bottom;labelBackgroundColor=default;verticalAlign=top;aspect=fixed;imageAspect=0;image=https://www.enowsoftware.com/hubfs/Azure-9.png;" parent="1" vertex="1">
          <mxGeometry x="60" y="288" width="156.15" height="160" as="geometry" />
        </mxCell>
        <mxCell id="uVOMfWOmMJlPaPXSzogf-2" value="" style="shape=image;verticalLabelPosition=bottom;labelBackgroundColor=default;verticalAlign=top;aspect=fixed;imageAspect=0;image=data:image/png,iVBORw0KGgoAAAANSUhEUgAAAPoAAADKCAMAAAC7SK2iAAAAz1BMVEX///8AeNcActUAddYAbNQAb9TG3PTc6PcAedcAcNXv9/3x+v5Rkd0AZNJGjt1+quQzgtnR4fXm8vvF4PaTwexLmeHe7voYhdoAYdFrquUpYL61ze/t8fl4puMAadPF0eqEs+dVfMibxu1ipOPR2u5BbsKasN3l6vaPo9WBndUiXLwyZb91k9FNdMRan+IYV7oHUbimueHL1eyszO+LuekAW8+6x+asvuNghcuUq9sAS7arz/C81PI3i9xGk96nye4AVM5imN+VuOgAP7Ntj9AhX1+8AAANFElEQVR4nO2da2OiOBSGlUtRrFY7nV4YRmVqQAmU6nS8dNp1u+v//00bckGwoFgQ0lneLzMRCHlyOeeQEFqrcaPr3tm39fDuHunuaT04612WXaIi1Lq+uu90RUmSmwKWLEtNsXt+9/uyVXbZTqnLn98bbUkQ6+8kCv3+zfDlD6VXX76KzTjsLX6z8dD7A+mvupKQjM3om9L577JLmq+un26lPe0doe+L6z+n5dVhQ07HTeCl7o+yi5yT1l3pCHDS8p0vZZc6B/X+StvVI/DNB7XskmfVN+GwcYuV3D0ru+yZpD60PwbuN3x7WHbxM0jpNj9M7jf823XZBB/V730BTCr2+idlv5IzkqNOL37KAX91rEuLZRc+IftFPwdypPZL2STHap0T+efr8+s8ejtllz6VrXs5JmY/yN7olc2TXqqY2baHJXTKBkqt1usHg9ckyd/LRkqruzy7O5b0SeYvzj4etyeq8SlMndrNdaATCa9lY6XRMD+/FtJniGx6JyFHXZ7/qYu/crbuTPJd2WSHdJZXAPtOAu+W7vwENo6iX5TNtl9nmaZl9qupl023VzcnGum++B7tX04QzWzV5Xm0X5yw0VE4+7NsvmRZWcAEuuDeTKw+sVE2YLJeMni27kuPSHlJYm/c8tvjOxn6+3YgK4leojksEW6vLrP49DTo4jmvy88/szj1NOh1QSmTb4+GWex7KvT+tzL59uj11B2+LtyXyZcsNdPjaip0sVsmYLK+ZHpoS4Ve53T9MWmRTQyUHZ3TJbiHeCsnvnao9tqCdOjNdZmEiXqLJ2tfqlTX7UZWdOGfMgmT1Epo1HYQhqi32dG5XIy47saXNld08a9y4PZLSeDKF52T+fjeGRVeCe0llDZf9AYfUXxHpq+0v/pz5F8S7Heu6PV6yejKDXavbPZV7PjoZwkRfL7oQqkrEeqd0Mdd/H+Hvm7IdTkjuigwBaMkJbpYXoe/7vqRekZ0sXPBFAQD3Ju5dR0DZkSXh0GG39lVKdFvSkJv3dOHs/LQy/LrV2yFoTR04aFA3LCubmWiNkbvSCQlvRaHvr2yWH15uiJ6wtsR1zT59MOnKwSdz4fWYtC5fJWqGDPH5YuThaDzuepWBHrxj+ut+wdc2N9fH4i+xqyCFIEuXZ2QMlb3fQlX91WbRt79mCFXBHrcfU+qn1Jd+Or/J5hulktC7xa8x/8alY4P9MInJd+4Qe8X7NXxXg5O0E/JGSM8m8AFerPglwaH+L1+LtCFYu17j+xo2EGXykAX3k4J+l7nffxc2qd+vRl+aI3qMHqLrbnJT8FVFzHoCRn1C15lbTHFpKJKQg/mIEOrzOL2t1Crvv8p0uhcrjlhJaLHVscR51I1+d0HcRT68RJuygZM1onRZV7fG6udGl0ueiOA+uuW6BeeBH76myb/9o1tq8uOdvdNS+YiUS6YvKY26w0s5tdJqsEmo0lq/2R0LpILf1dQZVs0Y6O5dPPwuZAX/6ogJ+hlrLlwgl5w8M4Rer+MdQcu0PuFz0XGorPnjwLRpXJelVP7chMreHIjYsuNJCXvXW7MqH5Jmxpb93dE97jTvQRJHFU+0dTdcN9yYzZJZa0qH6OToPeHZWOl0SnQy7FwRyt/dLH4daaPKXd0udQ9rK27IdFd3Dc+r+jB4dUJzJwoPZT6Tqjajji3HTHnJp3goVUWSp6P2glpdnSykKYhChdlfzy8HHSx3S3/vZEy0AWpw8Pca/HozebrGRdv+xeMLvSbF7xsZCsMvVEX5Wb37Tc/nxwqAt1fhJLatzfDM642bap9iagd59df6dE+8evs3CMki2L35vz7xQ8OPwyuMMW1iBUc9VOq8hFdX/7Zf/6iUqVPoksm7HVaQTJ68DJ6MM5DJWXE7UBXG12iBp4i+yHSZB3H2G801X3DFp6dW4+bYKhHMloH+fISwbyTyr5zHvsa0bkQ8etNeq70FJNTP5LRj2BCn2P0eiz63nl4OQ5dqseiNyt0/lShV+gV+v8EvU9fYaQbQPqRDSAd9l1AstwosYNx6GzriETQgyS36K3vdK/1d7LcGCTxs9o/bCf2P35MpgQH46bWohmdRTOqVKlSJU6kfGPCn29+YSls1y6Dg9j8n7EUef1pHTmXZbTgZwb2gHZ2QQRb9+m0JEk129i5PfTJuc1f+JGcbvpvRrZTSK/cPq7v6piQ5p4lyQaQ2JAmbvcQp8oZvfAXvTMoX3SxUfZC8hHKF73N8Ye/3ylXdI53MMUoV3SRqyW2Q8oTvehdyRl11Y7/JE/Er8vMr9NkxK8H2yTLevX1o7r8woSjsF6Q9FNqkMI9WYkcrAUphWZUEkKlSpUq7dOPxg0R+RuaX2nq5mvMs+ddlx4kX4NkV3Y5/bj9IV316dfO2XIjSQmdGPR7mZ57i9HZlfKniuG2erkVk0OaHSWENG2u/1DTHvW6ciZ0kc9P5aXS9YMkfhxd5uC13wzyv6D7MfT4ZZnPJPVCFD6ALspvf8BKy1nn19Hov0Qe3vTOQWvcgJ0jnNtn7+s7emMhzcO+kIaTj9lXqlSpUqVKlSpVqlSpUqVKlfKSMzndm3Ujc5Y9j4V+7CXzqZXqPA8mT+iZYHHsbcOyAISjLBkg6e7j4MhLFh50U52ogeQqMqBz5G2jZYAAjrNkgKQb2rHoGwC0VDUegz79d0L/s5wfeduIAFgAmCWD2kfQLTgZw0maM2PQzeDKTJN+lresuVrG0X48umkvLNtIYyDiWj1dpR3SSlvUVqzHryZjX37GljMmlnW68ful7pi1mQHwLS3TBWAS7q1R9NZg47ruip6gLgzgOijTiEUyPBWNVHrRfKnUBkvXNaktV8boEtaXfXRrw1inG2swWQID5YdqZL4hJ+kLw3XHuIpUE107SWNB1SW0aiPNxfWv2r408Ojf3qNtsvH8AlrQGWgaPm8EbeC4NgzBRtGXmgYh1MgJ+sYDjoF+sDeh246g4fdb+tPqcWA+olO0DWY3URmWQNMmAToy8yR/C2jWGBlIYNvP6JeVjdvMMmz/BrgMhoZu5xkp0Gc2spGtjUZrz/+AwhSbXkWj6A7O0QIG2Cj6XEWVAPyTZ663dToR9I229I+YEJuxie0TDOAmMixX/g0VYJOUCV0PpQdAwz1js/IbbQS8UYDO7MJc80160OFN0l0hnKDcR8bEr4xVze9pKdAnGNqEy+AX1YWzOHRgsCtM/O9U2w64MPoAAnLhBDcqJEPVgRFzAlz/VwMuKAEYkH/xPagFcLRpgD4CEHeIDa4cM4o+10jRdHTixk7rqFXg4Yu8rS0Zk070Dp05f6CR3y1tW11hdIdWDRpGQK2pHvHe04gdxH3N/9GhBBN6RdjVT7VxgI4Gkd9EOinuDvoEmsFFtL5SaEFjAlb/fqORKnzf6qRyFACVka8ZdIPqCqODwAjYYOa3Os5mGWl1hwwwVJ9WGMWyGbqF7kGNL0EntUT6+w66utS2Q2+kwaWSyuU5tMiLoMezkiehjwDwiKAb+KYwOgSz8P9WuJgDLezILFcjH21wSHvtog8cF6L8QQhd1/yKpsWNoqObhww6MhhamkBH14D96EsD9PIxG8HJ6NDqYY22MNFWj6DPoQ2XyB+EG30OgYdvC4Ebg77yXHMw6kVaHRVjgYpLyrQPHeXuQPtwfDuFxoTIgCsMFvTi5A6vxVRhBJ3WuW77l8DlyNlsxpHCIWdBbwtwF4mij6hljIx1VF1GbUHM0PsOvxORzcDhCIs5Ndzj/RFi2OwHxtoigUeAXovLNmLmSCVSwzvw3j8foDphHcbAPT6KTgd0bRFBRwZZdaj5NtlTCzNzu8GdedDYMZfhFwf6XdLUgp6CYh3/cn0Jd9BXNPCoqZEOH1T8iPjzmmJg3+2BObKJSrjVQ64Udf3WLvqAuA7dCI9137U7LvWvzJsFzg3gO87HtRYxeGPt0GgPu2YH3V4FYLWYTqemgg8CU5m7YBLt8KhIcDnX9ZFpbGtWZ13YafmNgC5Upga1xkDzPA0CJ/C36mbbRZDBG+yiIx9i6rU5AFF0NA4gvaNlg5XiB8o0pDGga47mfvCkwMmopZtwz4Mu0aO9rZy5/Yzcu4Zt9zPuso6GTOBGXzxjdC2wJfpG842U7W6DBzTcNBwE/+v3hDFExz1ScP/5YLFYTDfQY9ePHsG2vzjexg9kCbryjB8hB8gIPntjhfz6SG/cWgLA7rhCRft3Flyoo6J6j5qj++2Niua5B+OaQcg8tAaIcEQ0I0UbLaYoC2uAU7NQbtZ8Op1b4XkjfUYvJccH5nRO8ph7tGM5QdyhD0LTLtZge4ugQPrAXCioRFakkFO4jcxHi8WsFrpQWZhzi5bNXMy42Czq2JSTGq0sWR0cwHzJIU8kyFHYx87j7Eg5PID50tyGk8VogIze8vDJe5VyUocjzTfa4/OjbWSaOkVqwaNnPsuXjh5F9OyGZ/QHvGRaqVKlSpUqVapUqVKlSpUqVQrrPzFCrynSZJTOAAAAAElFTkSuQmCC;" parent="1" vertex="1">
          <mxGeometry x="434.3999999999999" y="300" width="185.64" height="150" as="geometry" />
        </mxCell>
        <mxCell id="uVOMfWOmMJlPaPXSzogf-4" value="&lt;div style=&quot;line-height: 160%;&quot;&gt;&lt;b&gt;&lt;font color=&quot;#330000&quot; style=&quot;font-size: 30px;&quot;&gt;Cloud Honeynet + SOC&lt;/font&gt;&lt;/b&gt;&lt;/div&gt;" style="text;html=1;align=center;verticalAlign=middle;resizable=0;points=[];autosize=1;strokeColor=none;fillColor=none;fontFamily=Verdana;" parent="1" vertex="1">
          <mxGeometry x="342.82" y="40" width="380" height="60" as="geometry" />
        </mxCell>
        <mxCell id="uVOMfWOmMJlPaPXSzogf-6" value="" style="shape=image;verticalLabelPosition=bottom;labelBackgroundColor=default;verticalAlign=top;aspect=fixed;imageAspect=0;image=data:image/png,iVBORw0KGgoAAAANSUhEUgAAAOEAAADhCAMAAAAJbSJIAAAAk1BMVEX///8AedYAcdQAdtUAdNXW5fcAcNQAd9WgwOq51vKUwOt7sOeix+0AbtOQv+tElN+92PPU6PiqzO9qpuT4/P7v9/0AfNhYmd/k8fv2+v7r8/xLl9+LuemnxOuv0PBuo+EphtrK3/Uvi9tyq+Xf6fddoOIcgNjF3fVuquU2kN6SuumEtei3zu/N3fNioeEoidwAZNGOGGCHAAAPhklEQVR4nO1dC5OiuhIekpisYlZFQFCPgy/UcVfv//91lySoBMNLw2Or/KpOnd0dhvBB0unu9OPr623Ytu9P1uPx2Loj+st64vu2/f7dW8R811sNzO/FNTQoxRikgDHFRnCdbc/D8c5z2n7aavDWljnbhAgDhCAkhBgZiH4EIYrIwvA0HYwn/8In9frLkQEBQDCbVwZVBBAJjtakbQrZ8HuDBaSMWwVqaaLRB6Ubsz9vm8wT7N5g5tJ3yCV5IoxO5qFDLO3xNHzr0ylIRizdhdUJkr61AEAruzvLaDlvfnnt0rMPUwRgDezuLAFdrNrbSbxzQGv5ehIgDrfrVvhN9hAV02MbXrTloXiTv4H/lW+WJXaVSMBu+o3zG58KPh/f4DAywuC0mC5///nD9LQ7DuPxnz8/y+liFIQG0wwKiBIcDhtVB9YLmrP6OLfwtD9bf3ueX3Qv3+v9tc77U5i/lUaT1WqCGsdkli1dohlFw8vPynMqvnLb8VY/e0YziyUEm3E9hNJY4gx+TO/anPtvib55/3yNxLN6BIgXDeyQ6wBk0QuOYy2Cfd4/BtGMVY8y1DFCHpZAOYkgDc2eRlFgr9lOpBiI4EWtOoC9V31Aguj+oF3S2Yc9Va1JaNS4O3oBUhBE0KxpdTgmVAwIcW0zdecq5g0EZo3TxjNVYpueaxotVAwGTr16RrthvVEsDLqsYyh7oyCIt3UMJeOIFeMOahhoqnqXPzUM9IQlVYx80D7MQTEMaOALMmyf5Q0xCtXBqgieBTcMGlKGbcXgSPfbPSgWA2hMFbYUKwRoFuEXhZhBO71jZGOn2BaR3i3DVuwUxGjMh+IZz9OUXLWuEdUQBm7sG/YUs5RArcP3lOrab51D5GGpGh7/1TmE6iUaxG3ICzZXzSADaPXdKBka8KRzjGyMlLZiEwwNsNc5SBb2qjnaEEMDbWqXp95GTbAhhpE9WrNbYUCyvF4NMTRIrR6w8UntNWmSIXOd1MWxf81y6zXLMOJIw6X23X+3dHGuH7xJhtwRPBpoJLkbjFDRqUizDA3msIHBWYddah/MAJY4s2ucoTi4pdfzav6ySmwzlzfFam9wBxgKmgjQYGZaJc5kkvC9nnWe5R1bdIYhZ8kOn0gwmi6twyQ/GMjxegfrPB0FBq4aCtAmw5gmCwaKHhsa4XW/N82f/yKsViuL/f/HNPf7a2jcrqkUfdMRhg+qIvIpPgeOgeJoqTcOybvDsC58GH4Yfhi2jw/DD8MPw/bxYfhh+GHYPj4MPww/DNvHh+GH4Ydh+/gw/DD8MGwfH4Yfhh+G7ePD8MPww7B9fBh+GH4Yto8Pww/D6gxF+YT82J/bNf8eQ56Gv1nMvr8XoxBnRKdBQF12DbsEK66AiYiiErF7TTKE2GARiXFIou2vh2aYTuYjgF4szxfX2PO+CdPxsXDbf2DapehLAvaKsNIJka8JrHRMZv8qx3CDZEz8ICNAvw2G6KqM8p4n1yMKlRH9lpQbLjH83R2GYKGOl00yxIuMCEz/kkhr7ChDtMj4jQRDbGbf+Pyg2E2GJDNR9sEQ5KZCLu937iZDlJlpcWcIjvm3vmc1dZIhHGX+xo0hvBbc2r/eXkUXGaZznb3DeDKXGJLiZOEJ7TBDKsXjHwKKMaZkNvDuDFFaytjOk1xdwM4yJCh5zS5OkyAQwP3B4XmfBMrZe955E4abpUxyh7vLUFpj/Yfgj0hu+B9SdQFWCLHodRDKvEUqfBcZQmkz9CQlTPxZLgvQp/EVMJSm9xh3lSHZSBdFXyj3Ase9vwJ5jxQ/6CRDIl/lTVNGEZKKrPxO3ARLS5GnMneRoUHTWcDeGSbnKpVKOp0SP5H3mTPqKkPwbDLY1ubBkSZ1unmyeAicJX+JV/boJEOiVFhWt5JuJEz+s1QeRf7R384yVH3ECPZZ2O9EqkgwTN5Drsew7uwsjfYEdenmA5c48lSUzHZCkkt40l2G0c6mLjmwYxtAaYa9DjM0oKsugbeGJM1QmqVScZsOz1L2rFBdPC0ybWWdx8peh4fuShr+sMC1FDm/fkhklWYtydIg+aN+txlyjoqKA2dEYPLvTrLKDJzKl3acIbOj0CLtNJ3glM4zS3h55cfrrtaWBAQnWaza1ACr5D8kzSvJsnTCrmreEZIPAols2eLUXEzUCqLS04353TvJEFhmsvoIkKUqJPJC/PKM2AuQ8qBOO2sBG3j8tU4U9k45ZeiTq8obUQQRoHLlSkfcQGaI4QPqA7umGEa7wMwAiOfcY2nzjyRNpPKkPMaTn6M5TO0tpvheEsPh5pRA2FatL8Ew+gjj7SgMg9QR1J+nTU4NR+VNlDFTnbU1yZA/p5Pe9bl/ibiFNYZvj991hk/YidWV4xYXuBtV/xzD/e3T5Jw8RRjfPTv/GsPV40wpr7zi+uG6+scYHhJONzDNuurLSoRl/FsMLSkMIasyn71NXtZJhrLeecdkkYrEgHSrEKlDSefrJkNi7Ptps8kZq9pfIGO7Th8Xn+X3kFOWuD2G/JwpmP7Xn0ycCN76z3LkqqN9CALh8b+xNF0tqf0BuY6yIOs0vAwVpv9TTyDNDA0eyAUAxZTyBnl51ayiCzGV6oGupUr9BGbhcU8YvdJwYf43nnh6S23ri9yTzQp1t4XMV4RwMP2zq6WKuMbYRNnE8hdl70wQvf7Uw04zw3TV/62iFrqCH4DnWvsGao0vpbLQHOSXuBT8rop2T7bv6yuurzeCFstyflVQSZDga8qQ7g3P09loEwTBaHT5Pvd779f61cuQINmS7Kman9yBUDKs0Rkfry4v0wdJ/B8CwL2ab/Yp0hwFTZB8FDC/ZopUiLYPfo51Asyf8HxD1vzypHJMt8Qweu6UKqTqTMAAro93cdjnxw5DgKYv9xHSHslOwuNUgvoq/PiAq1FCAyIIiU58VOpKRyAevVjTWH+sflqBUV0D0V0k9YPb54s0I4pP5q/VmDXhW/f7v44bhO9tNCFQR/Q2z7AEUHATkb1NvKMw7Xa/et4YJ9YsvJEk9JW2Xm0wBItYcPhncPMkh8cnC+UG+zA14hgJiJaVdZ8WGIJ9/JSTOPCBbYv5O4JjhXEAAahcDb95hnfXxwDED11qfa0CcTlEFW2rxhneCe5FLBwq3cHScvneSmhBbHLLDMFFjOuMgHhcs/zCcqbiM4JZlcXYMEN4Eg8Xm48orLaRH8QZFzpV0HGaZUhCIVE8rq8SfKkqGWOrE4XlddVGGRIgNjzRrI+AV7rIiV6bcFOaYqMMqXAr+ldOsKpQjDHk+0ZmwkurDFEsZRbIeLZCymPMhTCaFV/ZNMNbhPSWDUnA6w0kD3yi4pLNIBtkiMWsXDF3cdpUroYVpwjK3aI5hnEsnMctIvye03fAnFwkLNUHtjmGcZCRiCF6tz0en+nlpE3tDEUKNLn1/Buytw9LC8JMcHFMyxxw1MmQZUljw71GcCnkU4qHwBH0fpthPtmJ0SJDiDA9/Vhr3/ftCL4j5uiRbRRUR4tMi02Gp+SrphhGHy/4UW13HpOjUE9PN7agSyTQ1cGQAHebsZvv+VPpceJPuLApbsuqnyEgyyydkXcdLTOzSoG12iWo0OTX7i+ly2zLhj8T0HUkwRNZituyavbqg1nindq71c90E7quuzldfvpz3vNUY6dYFjZHcNEL08oQwoeq4venAeVO3bjhDsaupp3iBr5jFPYu1skQ3N2gXzvz7uV8gBt22SE41cFODAobiuo8A757iHp7VYUTDqyzsTgPQQYFG4Y+hvfW9vPj/RyCBVewJOl7oIPebsY2C+VABVaUNob3I+57uBAEdLP93e/tIvQH2w0GUHdHaiZrimIkdTG8xT/bl9g5jehoJe+LjjWj9OVDMiVYXmCREaWJ4c0c8kLhtQXuWbXt21pjgb54xLmB89+aHoYolpBr4c+E8KehptBMOS1YiLtSPRcLcMsbPXBxQvArh2CvgSUGwkvuJXO3MCKkmGDsBp0Igi+5QV8ES/gnm3z5fH2fYRxdKRrRZ6Ut1gNmjhEjX3FT9m+vhJtWEbAJn5V6WhN8Nm1w/pC7dHWyyoh3AO4cgm6jBL/sDSnWkzIanJcGEsrairuY3FpD1BRgBWIyAprvmL9ZClB4CX0eC6tV6ywF5jUoTN8ZvjVPY2PhzJXgko52jfguw/Dr+M6uL3xBDvOzF1aOqgHMbYB+Ci9bvL4UY189z1IDTS/CeOASDO3S8bxPECa2zz4hqhZBoAf8G5ZQMexLqXjeZxCDK6AsiYtA7X3mS6DcOmQ4F8fzqhB7d9mupNU/URqzErtFjLHxig4uXh+vflFgxNQEVvwHl8xA8Ra0+mfEXLiwwhjErZNIFrgfg5ZeHitYvsO7AAH8F/fFVlpNcJhtgcobo7ZZkaPwkfC6As2rMwyHEtaTjN3xqXBZHsQZBC+tp81ZXwncAs4qE5uB3YWW/45C0PTxU4W3piAydsPTpSB8U4ZnIlCSo0jE5C/yuyYO+YgDOHlFxyqy3B5e1YW70xCmISvRotkRWhKTh9FAIJ1Vsk3XZoiLzSqxWWyZKM3Leq4NvyRtE5ZR3xKw+xdURJJyZ+yltOakG6M4PTI+BSJFhX+fMT66uamVopBrKSu0Dti/VodoZjqT/iWOdQcvxLGsB6MQZ7EU9j2r0dKkC1EFeyhipMFLYRDOejlzlU0DxDosaaPVDGf6XCy1CmzPMq9xpk6iJvtDluqKP3gDv3m023uhHpPxYB+EBACEWPkcIuxfZh3CsuGedWLAw3WKKpIUw9n1+oPtbLQJIeVzU5xxvX1fDRAhV9o0ZNuZz7mk4WEfVF8EwuvwA1KLAmmzs4+ShnbN4AUOqX6PGNsu2nFiPCEocbL/AtibI6C2jPoqYHK9MAClOsqF7jSCNXjkregEjzlsx0JMweYHRPr9mrxwIngxUVcv+JO8numQCeap0bDVagA7tac1MOQxybgLK5EdtdfxDbnfksCGYkzyQOtZh3E53Q7MUw+nizVrw0xLpsjbYFszDGq5tQefys22AXauD2s65utzv5eWXIrX0WPvWW+tsARETSHa6lcU6Q61ud9F3Eqba5EHDdfpbjgJiqe2TEWPu5Keuo9ohC2S7CFqZ6Z6PO6sRBrNO5hh4ZndtGAP90IRWFez2nEWB8kQBMOGFRxTeDtp7e/2IDyzrD3pbDhp6FDR3p3j+HnawFG0s70VDWItZk/fpjmoiKVZEfvglt+Bm/GlsFrnscuYEIjqx61UE6GN+aUPJ4B0BJBXA2zUkTI5Z5/n1MVv1nBQlt/7vXDZSUcjiORaK04Ue36whr+awFChR/0fgD0dVR8tcQUAAAAASUVORK5CYII=;" parent="1" vertex="1">
          <mxGeometry x="300" y="517.5" width="100" height="100" as="geometry" />
        </mxCell>
        <mxCell id="uVOMfWOmMJlPaPXSzogf-16" value="" style="shape=image;verticalLabelPosition=bottom;labelBackgroundColor=default;verticalAlign=top;aspect=fixed;imageAspect=0;image=data:image/png,iVBORw0KGgoAAAANSUhEUgAAAOEAAADhCAMAAAAJbSJIAAAAkFBMVEUAedb///8Ac9WgwOoAbtPy+P3v9PsAddUAd9UAcdQAbNNon+Dy+v76/v83i9sjhdp5r+a71/KZwuwAfdhxpOLb7PnK3vXW6PjN4vavz/Dm8fukye5dn+FNl98AfNcAadKEtehwquWNu+rY5PY6jdyqy+9Kld9zq+VVm+C51PJNm+Di8fuFr+XF2vQZgdiZxO06n3LkAAAHBUlEQVR4nO3da3uaMBgG4JAF86YTtVrFA3YeOg9rS///v1sOQF0rygpR3zTPp9Zr1txLgBCSSALXQ65dAOvxQvzxQvzxQvzxQvzxQvzxQvzxQvzxQvzxQvzxQvwphFHoVqIPwnGvkxKXMuj0RgfCaUIpuBYu5sNcOAZ+7f9yK+Hi1QhjAdcui6UAGylh1HUVKIlpKIVv4trlsBi6kkKHq1BWIolIzK5dCqthYzJxuZHKZjojP+i1C2E19IcXYo8X4o8X4o8X4o8X4o8X4o8X4o8X4o8X4o8X4o8X4o8X4k9TQhDszlKYqPVwsyEh7UymtiYatMcPtMazo2aENLHFM5nUKGIjQniyCwyC/tefHjUiFPe2he30y+20CSE8WjsGiyRfPts0IuyG1oW9Kwvb30Q4/cUbD+vfkrDFmp/XRG9MWPMPHYkXVvgLXlghXlgnXljhL3hhhXxByKve1SIVwt1iuGSV7hZQCkFs1PTruFNlZjJCIYhufjf5Oz3/yfiEHPrFOoggXLBzBccmBLZs/XNTNPxz5nDEJQS6iYOPGXVPDqRhEgJNJ598Kv3HEwVAJOR0FR0Fyvdty5sqHiEkp0ar4k0ZEY0Q0uEJoCSWjRaiEcqjcFteia1t6dkGi/CRc6DQLwH2CQVeUggkQkife5SDGOyP+O5TIX3b+Pi4PRbhIAzinQBgny6Iwx0DELs4GB5/Mxqh6sncd6WRbw87Ne2ebL4iVVXrglAecNLDDw7H3/oANB1VN4RBuKR5nan+mqxT+pA983BEGATjuToc58PgOWHquBwXB6QrwiDYP8qmCYm8j6KPB+dWh4RBsJKHozzn8MVhR9UpYTBd8k8dVbeEQcCg++EVx4QRg44XZuXzwrPxwirxQi90QhieFT6jFpJ/O2jHhGHJtC4sQkLJ5JQw6pdtAYRGqB6pjUqF6u6/rHxohMqYtI4Kh/MTDxIxCdWj7Xxg/0AYbu9ceTKj/mE+gPEunJ16LEPQCfXhGB8IR2efdKMTKuNDS90fSuF0d/5JPkKhPBx5vy2gEy2qzDhBKZTV2AFIu5U+FqdQbcBFoNrke6zC6vHCCn/BCyvk+wi/wWqE3c/ms78loc1cWZjaX/e0va6Q21+7Nr/q6jxCZ7aBU3Jdof0FiF9fftjQOmBIP0+rbDBRUmOL1YbWcgP92b8/mVE5YHT6nbPFoM5y9cZ2HOBUnAr7+ET0oIZSdvKtlNfa5/hSeyoAKT1Uh3Y//2K7RojSZmp5H+OLCelbmXBhd8f7iwn5okz40xXhskz4ZHfD9OsLbe/qf7njsGyGsDN1KNZlwgc3jsMT+7uM7H67xmWEwOZly0lk3kS9XsvpWBTm3/ZCBdscm8L+nviBMsrzbRQaLoYdIXBO1TgSQHez/LE/P8gRjWe9P52BmpOp39og04oQBs/DOGy3/3/4JpJvasfDYYP9HDvC9L9pH9Jvrkw3KmywTDcqRFCHUa3cvJCQp06tPH19a69PsSSsvbdQc0XxO0PijxfijxfijxfijxfijxfijxfijxfijxfijxfWjRqmh39+Vb99Houx8shCx7IQui8vL+8Pefn85WUHBAZJkuwGB58ruuoVK4+gLAv1dwoUC2DNUiDId6lfFR8sVvoFKzNrLAvNDIxBVjdUQcaUP2Qj253s9XwLiajBYdIitlvpQJV8kX2CGOtfCuFb9jpd4RUSplBj00yhG+mK08JY/jzNZkOJ5yBotZAKdTPNJpTwrdIKooV7NQvMzPyFjXoWg1VomqmZh05H5kctfF0qpq5EoVZBq9nwKIWEqmY6UhIgkalOLRxRVbmg13jJ12OBVsh7QfY1MTzJDkkj/KVqdMmzxrvgaIXm9KJmBYl9YCYiGiFbZpWrz7BdQCs0gL38DKYmLqg590Yo0rZutNCJ9PkHr9A0Uw4wz68b2XEoXvXVUU9461HEQtNMd6AXZeiTalaH5rJIYRgEoaThFZqL/kSIad5/y4Rmx5OOuhjeM9RC00zvNrpPql8wQtMtX6mLYcJRCwHURf9pVVz5c6G+fExlRUaCoBaaZvq2lhWZ9d4yIWHZhMUJdqFupmE769ocCEW2ac0GkAshzeoqWyZZCPUFRDZUjl1o+qbvd8LvQgjzKV7IhbqZFreJRjhWLZb+1ichyLvlaIXwOFuv16+bYtDifj3WLRa6+/V6pdsu9NfrmY0Pv9A8b8oYe5+wDiL/flj1Uz6UIZiVgnyLEeE6X9SKIHRGxhY2e7ihiFdi5Qx2MwEekoOxZwdDtwEJwoG7lah2QyDm9szRMNn1Japz7ygRmFqbS3SHqmN1ddVVAvkXoJHsHi15FMypkN3M3NNkQnkH13IrxZYyhdDZeCH+eCH+eCH+eCH+eCH+eCH+eCH+eCH+eCH+eCH+uC/8Cxkdzd0Fyxy1AAAAAElFTkSuQmCC;" parent="1" vertex="1">
          <mxGeometry x="482.5399999999999" y="502.5" width="115" height="115" as="geometry" />
        </mxCell>
        <mxCell id="uVOMfWOmMJlPaPXSzogf-18" value="" style="shape=image;verticalLabelPosition=bottom;labelBackgroundColor=default;verticalAlign=top;aspect=fixed;imageAspect=0;image=data:image/png,iVBORw0KGgoAAAANSUhEUgAAAOEAAADhCAMAAAAJbSJIAAAAkFBMVEUAedb///8Ac9WgwOoAbtPy+P3v9PsAddUAd9UAcdQAbNNon+Dy+v76/v83i9sjhdp5r+a71/KZwuwAfdhxpOLb7PnK3vXW6PjN4vavz/Dm8fukye5dn+FNl98AfNcAadKEtehwquWNu+rY5PY6jdyqy+9Kld9zq+VVm+C51PJNm+Di8fuFr+XF2vQZgdiZxO06n3LkAAAHBUlEQVR4nO3da3uaMBgG4JAF86YTtVrFA3YeOg9rS///v1sOQF0rygpR3zTPp9Zr1txLgBCSSALXQ65dAOvxQvzxQvzxQvzxQvzxQvzxQvzxQvzxQvzxQvzxQvwphFHoVqIPwnGvkxKXMuj0RgfCaUIpuBYu5sNcOAZ+7f9yK+Hi1QhjAdcui6UAGylh1HUVKIlpKIVv4trlsBi6kkKHq1BWIolIzK5dCqthYzJxuZHKZjojP+i1C2E19IcXYo8X4o8X4o8X4o8X4o8X4o8X4o8X4o8X4o8X4o8X4o8X4k9TQhDszlKYqPVwsyEh7UymtiYatMcPtMazo2aENLHFM5nUKGIjQniyCwyC/tefHjUiFPe2he30y+20CSE8WjsGiyRfPts0IuyG1oW9Kwvb30Q4/cUbD+vfkrDFmp/XRG9MWPMPHYkXVvgLXlghXlgnXljhL3hhhXxByKve1SIVwt1iuGSV7hZQCkFs1PTruFNlZjJCIYhufjf5Oz3/yfiEHPrFOoggXLBzBccmBLZs/XNTNPxz5nDEJQS6iYOPGXVPDqRhEgJNJ598Kv3HEwVAJOR0FR0Fyvdty5sqHiEkp0ar4k0ZEY0Q0uEJoCSWjRaiEcqjcFteia1t6dkGi/CRc6DQLwH2CQVeUggkQkife5SDGOyP+O5TIX3b+Pi4PRbhIAzinQBgny6Iwx0DELs4GB5/Mxqh6sncd6WRbw87Ne2ebL4iVVXrglAecNLDDw7H3/oANB1VN4RBuKR5nan+mqxT+pA983BEGATjuToc58PgOWHquBwXB6QrwiDYP8qmCYm8j6KPB+dWh4RBsJKHozzn8MVhR9UpYTBd8k8dVbeEQcCg++EVx4QRg44XZuXzwrPxwirxQi90QhieFT6jFpJ/O2jHhGHJtC4sQkLJ5JQw6pdtAYRGqB6pjUqF6u6/rHxohMqYtI4Kh/MTDxIxCdWj7Xxg/0AYbu9ceTKj/mE+gPEunJ16LEPQCfXhGB8IR2efdKMTKuNDS90fSuF0d/5JPkKhPBx5vy2gEy2qzDhBKZTV2AFIu5U+FqdQbcBFoNrke6zC6vHCCn/BCyvk+wi/wWqE3c/ms78loc1cWZjaX/e0va6Q21+7Nr/q6jxCZ7aBU3Jdof0FiF9fftjQOmBIP0+rbDBRUmOL1YbWcgP92b8/mVE5YHT6nbPFoM5y9cZ2HOBUnAr7+ET0oIZSdvKtlNfa5/hSeyoAKT1Uh3Y//2K7RojSZmp5H+OLCelbmXBhd8f7iwn5okz40xXhskz4ZHfD9OsLbe/qf7njsGyGsDN1KNZlwgc3jsMT+7uM7H67xmWEwOZly0lk3kS9XsvpWBTm3/ZCBdscm8L+nviBMsrzbRQaLoYdIXBO1TgSQHez/LE/P8gRjWe9P52BmpOp39og04oQBs/DOGy3/3/4JpJvasfDYYP9HDvC9L9pH9Jvrkw3KmywTDcqRFCHUa3cvJCQp06tPH19a69PsSSsvbdQc0XxO0PijxfijxfijxfijxfijxfijxfijxfijxfijxfWjRqmh39+Vb99Houx8shCx7IQui8vL+8Pefn85WUHBAZJkuwGB58ruuoVK4+gLAv1dwoUC2DNUiDId6lfFR8sVvoFKzNrLAvNDIxBVjdUQcaUP2Qj253s9XwLiajBYdIitlvpQJV8kX2CGOtfCuFb9jpd4RUSplBj00yhG+mK08JY/jzNZkOJ5yBotZAKdTPNJpTwrdIKooV7NQvMzPyFjXoWg1VomqmZh05H5kctfF0qpq5EoVZBq9nwKIWEqmY6UhIgkalOLRxRVbmg13jJ12OBVsh7QfY1MTzJDkkj/KVqdMmzxrvgaIXm9KJmBYl9YCYiGiFbZpWrz7BdQCs0gL38DKYmLqg590Yo0rZutNCJ9PkHr9A0Uw4wz68b2XEoXvXVUU9461HEQtNMd6AXZeiTalaH5rJIYRgEoaThFZqL/kSIad5/y4Rmx5OOuhjeM9RC00zvNrpPql8wQtMtX6mLYcJRCwHURf9pVVz5c6G+fExlRUaCoBaaZvq2lhWZ9d4yIWHZhMUJdqFupmE769ocCEW2ac0GkAshzeoqWyZZCPUFRDZUjl1o+qbvd8LvQgjzKV7IhbqZFreJRjhWLZb+1ichyLvlaIXwOFuv16+bYtDifj3WLRa6+/V6pdsu9NfrmY0Pv9A8b8oYe5+wDiL/flj1Uz6UIZiVgnyLEeE6X9SKIHRGxhY2e7ihiFdi5Qx2MwEekoOxZwdDtwEJwoG7lah2QyDm9szRMNn1Japz7ygRmFqbS3SHqmN1ddVVAvkXoJHsHi15FMypkN3M3NNkQnkH13IrxZYyhdDZeCH+eCH+eCH+eCH+eCH+eCH+eCH+eCH+eCH+eCH+uC/8Cxkdzd0Fyxy1AAAAAElFTkSuQmCC;" parent="1" vertex="1">
          <mxGeometry x="652.6" y="502.5" width="115" height="115" as="geometry" />
        </mxCell>
        <mxCell id="uVOMfWOmMJlPaPXSzogf-21" value="" style="shape=image;verticalLabelPosition=bottom;labelBackgroundColor=default;verticalAlign=top;aspect=fixed;imageAspect=0;image=data:image/jpeg,/9j/4AAQSkZJRgABAQAAAQABAAD/2wCEAAkGBxQQEQ8SEBMQERATEg8SEhYPDxYQEhASFxIWGBURFRUaKCggGBopGxUTITEhJSkrLi4uFx81OTMsNygtLisBCgoKDg0OGhAQGi0iICIyKy8tLy0vLS0tKzAtLS0tLS0tNS0tLS03NS0tLS0tLS0tLS0xNjItNTUtLS8tLS0vLf/AABEIAMIBAwMBIgACEQEDEQH/xAAbAAEAAgMBAQAAAAAAAAAAAAAAAwYCBAUBB//EADkQAAIBAgEJBAkEAgMBAAAAAAABAgMRIQQFEhQxQVFhcRNSgaEGIjJikZKxwdFCcuHwgvEjM6IH/8QAGgEBAAMBAQEAAAAAAAAAAAAAAAIEBQEDBv/EACERAQEAAgEFAQEBAQAAAAAAAAABAhEDBBIhQVExkVIy/9oADAMBAAIRAxEAPwDqAA+vfIgAAAAAAAAAAAAAAAAAAAAAAAAAAAAAAAAAAAAAAAAAAAAAAAAAAAAAAAAAAAEdesoRlOTtGKcm+SV2HUhWM/8ApP2bdPJ3GU17U/ajH3Y8Xz2L6cLO2f6uUXV+zpP9EXa695/q+nI5Mtj6GdzdXvxh/Whw9Jrzn/FvzR6W6TUcoUYp7JxTSX7lu6r4by1Rkmk0008U07primfJo7Edn0bzvKhUjGUv+GTtJN4Rb2TXDHbyuODq7PGf9OfpZruw/j6CADRZwAAAAAAAAAAAAAAAAAAAAAAAAAAAAAAAAAABU/TTOezJ4PhKrb4xh9/gdvP2cNXoTmrabtGF++9j8Fd+B85q1HKTlJuUpNtt7W3vKXV82p2T2u9Jw7vffSNyEnxPUiCe1mZWnE0ZJnpronhK4lLH0L0Xzl29FKTvUp2hLi1+mXivNM7J859HMv7CvB/om1CfRvB+Ds/ifRjY6bk78PP7GP1PH2Z+PygALCuAAAAAAAAAAAAAAAAAAAAAAAAAAAAAABhVqaMZSeyKcn0SuHVO9N8s0qkKSeEFpS/dLYn0jb5irKTezBE2W5V2k51KjSc25O7ssdy5bvA1XlcF+peCb+hhcvJ353Jt8XH2YTFOkQT2swlnCHvPovyYPOMe7LxseVyn16yVKZQdmajzgu5/6t9jxZw9xfN/Bzun13trpH0/NeV9tRpVN8oq/wC5YSXxTPkUc5LfFro7l+9AsuU6dSmnfRkpR6SWK+Kv/kXui5Z36+qXW8d7O74tQANVlAAAAAAAAAAAAAAAAAAAAAAAAAAAAEWUV401eTst3FvghbrzXZNpSDKMohFNTksVZra2uixOTlOcJz2epHltfVmoolbPqP8AMWMeD6+eZ7yJ0a04u7i5SdOT/VC+HilZNGifSM4ZDCvBwmuaa9qD3STKHnTNk8nlozxi/ZkvZmvs+X+zF5uK43c/Gvxcsymr+tMAHi9gAAC3/wDzeLjWq1ZPRpdm6eN/Wm5Rat0SePvLicDMuapZTOyvGnG2nLh7q976fW+5PQhTjGEEoxSsl/drLPTYWZTP4rdRlO24fVqhNNXTTXFO6MitUasqbvB24rc+qO7keVKrG6wa9pcH+Da4+aZ+PbH5OK4+fTYAB7PIAAAAAAAAAAAAAAAAAAAAAAABjOSSbexJt9Cu5RXdSTk/8VwRvZ3y5f8AVHFv2n3Vtt1Ocinz57vbFvhw1N15N2TZ5TqaSPZbH0NSnO1+aK1qxInoSu5PmjDK6cKkZQqpOLV3f6p7muIyV4vwNDP9XRg+MrR/Pkmct1ilJvLSnZRkUkpTipOknbS26N9il4b9hqn0LMlJRoqLWLvKV9+lx8LI5mX+ikJNypTdPfouOnFclsa8ypl091vFanPN6qoGxkGRutOMItK7s29kfy+R3cn9Em2nKqtG+OjB6TV9ivsNvPNCNCWTumlGMVglu0ZJ+LxZGcN/ckryy3WLsZBk8aMI0obIrF7298nzZLXlZxfNkWTe14Myyp4ou+lL2mqVNFEmS13Bxmv8lxT3GjUne3JG3FYLoSlu9xyzxqrNCSaTWKaujIrGS13H1oO2Lw3NJ70WLJqyqRUlv8nvRf4uWZqPJxXBKAD1eQAAAAAAAAAAAAAAAAAABq5wyrs44e08I/k2ivZZW7SpJ7l6sei3/wB4nlzZ9uPh68WHdfLlupo1W5Xxvj138zeMakE1ZpPqVSNNyxbx54mbb2tHHHuW1mgcLV+fkNX5+RG534lMJPawU5Wdzk5/npzpx4382kvuaur8/Iavz8iOVtmtJYyS7279J6LXDZ4G5PY+jKpq/PyGr8/IlM78RuE+rTk69VeP1ZxfSBaUE+El8LNfg0NX5+Q1fn5HMsrZrTuOMl3t28gq+rTlxjG/wJKkru5wNX5+Q1fn5Duvw7Jv9d026rejh7TwX5Kvq/PyGr8/I73345cJ9WqlDRSXBHSzLWSc4NpXacbu13vS8ih6vz8juZmblSWlji0r7bf256cXLZlvTz5eKXH9XcHMzVljl6k36y9lv9S4dTpmnhnMpuM3LG43VAASRAAAAAAAAAAAAAAAAQZblHZ05T4LDm3gl8SrZPlSeDwfkzv56qxUNFv1m00uV9/A4jpRmr2T5r8opdTbctLnTyTHdSlacbSqLhOa8yx042wvdbr7fE4OWxtWqrjov4xRVz9LWHtGACCYAAAAAAAAAAAAA8bO1mmFqNPmm/i2zh1n6r6FhoU7QgrtWjFYW4cyWH6jn+JrtNNYNO6LFktZVIxkt+3k96KtNVFsal1VmbGaM5OM1CWEXKzXBvC/LcWeHl7ctX2rcvH3Tc9LMAC+ogAAAAAAAAItYh34fMhrEO/D5kc7p9d1UoItYh34fMhrEO/D5kO6fTVSmFWejGUuCb+CuY6xDvw+ZHkq0GmnKFmmn6y2C5T67qqnKbrVG5O62vnwRtnk8mVJtJqUW8GmnhuT5mNWVoya4MzNWfrQ3L+PFWTlorG23gjkZ2jasnxgvimzp5HS0U779F+X+zRz5H1qT/evpb7kMvxPD/pogAg9AAAAAAAAAAAAABhUjfRj3pRXxZYq1bRav7L38GcLJo3q0l71/hidvLV6j5W+v8ksfdRz9RORZRSTV962M1clynRwls3cv4N+CTlBNqzlG+OFrk55ed8LJTbajfbZX62MyLWId+HzIaxDvw+ZGpufWdq/EoItYh34fMhrEO/D5kO6fXNVKCLWId+HzIaxDvw+ZDun01UoItYh34fMgO6fTVUWwsAZTULCwACwsABhUdrWJaWWtYS9Zef8kFXaYEdpadillcXvXjgzVz5jTi+E4vws/wCDRI8o9hr+7Rb4McdUB5F4I9IpAAAAAAAAAAAAACfNivWXuwk/t9zo5bWVtG9t7ONQfrSausEsCU7jfDlnlM6qWxX6hVHLa8Fu3ESROlY7HKWFgCSJYWAAWFgAFgAAAAAAAAABFU2mBJVIyKcDyorp9Geg4604V7JKx7rHIVKKvhcx7LqeflPwy1jkNY5GPZdR2XUeTUZaxyGscjHsuo7LqPJqMtY5DWORj2XUdl1Hk1GWschrHIx7LqOy6jyajLWOQ1jkY9l1HZLmPJqJ8lx0nxZMY04KKsjNI9IhUlKO8zCBNAAAcAAAAAAAAAAAAAAAAY1VgQmwyBqxGpR4GwYVXgcSRNngBBMAAAAAAAAAAAAAbEXgiWkiCk8DZprA9I88mQAJIAAAAAAAAAAAAAAAAAAAEdXcAcrsRkVbaAQqcRgAimAAAAAAAAAAAAAJaO/wNuGxAHpi88noAJIAAAAAAAAAAA//2Q==;" parent="1" vertex="1">
          <mxGeometry x="447" y="680" width="205.6" height="154" as="geometry" />
        </mxCell>
        <mxCell id="uVOMfWOmMJlPaPXSzogf-22" value="" style="shape=image;verticalLabelPosition=bottom;labelBackgroundColor=default;verticalAlign=top;aspect=fixed;imageAspect=0;image=data:image/png,iVBORw0KGgoAAAANSUhEUgAAATYAAACjCAMAAAA3vsLfAAAAz1BMVEX///8AcsYmh84AYMAAcMXp8/olhs4AY8EAbsUoic8Aa8QAaMMAe8oAasMAZsIAZMHG2v8Ac/8Xg/+ixP/4+/8cf8vo8P8Uesmox/9cnf/t9Poggszu9P8Abf/5+/8Aav/d6f8Ad//R4f+OuP+3zelzoNdQi8+hvuPF1+0Afv9wp/8tif9ioP9Ekv+av/+WuOBjmNTW5fQAS7l7rt3R3/FGktJIh81akdHK3P/h6/96rf+Fs/8AY/+81P+MsN1mo9lyqNuqxOW30es7jv9Mlv8zFvVpAAAJXElEQVR4nO2deX+aSheAQUdAFo2REQWTGPdo43JjtdVqtfH7f6Y7gMsgw2Lf98ZkZp4/WoOQwvM7Z84sQAWBw+FwOBwOh8PhcDgcDofD+SJM2+POpAsR3Uln3J7e+ny+AOZuocmaqigKQKC/VE02Fjvz1uf1qcl1CgbyJYqWDj0sSxRFoGiFTu7W5/ZpMTuyAkTLyWQy+RPoB8dC5uQOjzgiO00FInQ9XZLPOyJQtfatz/ATYs+LAMA8yZonDoqg2LVvfZafjZ4MgBUlzROXsYBS2N36PD8VU6gB0YmR5olzRLEw592RI3bHDbVMgjUEKrFA7vBMdclti4ooSsnS8hBpE0Wl+MY7I38WrjRi/QxpEw+ohUX/1ud9Q+z2RNVQTw2myE+EBI7eRFBQOn8Y7MfZs17HkpEzYDlx9RMPNuuszRs5FOF2N2XBXW46a+/G28lczRZVd9BppQy0QI5i6gxZBt3Oprfrz6bUNni5f+SCYaj+KF20oJRPGWgeDgh589wBRVUNrSD/Q6u3XFZ0R+lomO5ImauUhXKUQJZebcCVda2wg7Z4aXRrk/5CmE9EjnJt8cGWlKNcmyQ5EOoeEDWD/jFJ1hjXJkE9v931pzkbkZv2e9u8jipIYo6yrE2C8K0fGqrb/TeoKFxbBI71O3Ks2V9kE8Qxqs3R32KnhHJbOVYck9qkBGku7rwc14YDv6eatZ1Cg2vDQq2X9ndsIgOOOW2Sc8UCwUyN8MaaNuf7VZNmpkWuDIxpcybX/p6uyrU5v6//RQuSN6a0RVmzp33ENKJTQoo3lrRJ3wn7TXsT53DHke5MeqR6QZgPYUib5ISqgbnzhu6nPSRHt3qhvexwPWVImx6KpDGEoYgEhra53G8ms6sNji/26DtOqGZ4E5SG8udi183leIEZbVL+YoetTuig+IsIQL7sp4iAUW1WMEXNfDjUMudFBFUMltVplk1t0jbwre2QB6ynogmMoJiJwqQ2PRA9NjHUUI5id34EvdlZFrU5b4Ev8xFzSg5mBoiBnkhHYVCbHrjM3xHBlrFwNUoXP6Yis6dNCoyqdnpQluR4K37QkYL1shCYmOsC5rRBfLXFDlqT9Py4n7PtXH8sXUxLyniD2NbY04Z/sw2kqP59dv5qNi8E0jTQfWNOW6D3kbMCoXbx2EY7EHBZvLOH90GY0AbxwdIbFmwSDI1TcwrmTelg37QNxrThnTYTDzZIuPqcgXnLYp2QnMyGtlNM4cPRNsTaNeK6/Kx41mPgT8JgA1NqtdmYNrz78RvrlmzJh2I9W7DAti/Y0HYU5OD9L6z3oUfMgttYOS1i2zfn2fEstU/HyCdteEWY6onBFgg3GasZu3NNyFJ7r70CjiUTYj2zP+c6CiPvOMJaN7xxwzf/l2d+U+bg+JQQPiDtnbXp0RFz7tmq2Jzw9FRKAYw89KvTUaz8sZKeVGG3jYemezEgNoF0bufOn5WrV6m/DD1VPBk6g2kjLf8dwGqmCM4QY5Ay+gUQ+0iCFLNCv0i4ebdA70N/phx/F2pctHWTHoKhtpDiNYGME33o5ULVBRRXBEEYq2KsNj2yp2+HlpODqKEFaIqoyCDOWsaJfNVHYEaSgEz1qwes+CyNbtwSmjZgfeRVfDg9IyFLZ+Tjpkk5mvrm3y+JXQBRS1Sx4TZPqKNFasfxPmhIHl9LiU37JqFlo3iI4DNN6LpldML7eHYJKUp5QXBZJIRbRg+NknpJ1kCX9C9RBQq32NYtk4GT4M0hi0KCNQaCzVukS3hWXtLfTh6mm2LiI5GBaXJayckJIyxXHLA6491u3LEKxGcQLoKN1lWEABs1fh4k495BCRTVfWVI4jPLIuXjKgz3BXdJ0ZZC1zFFlVtfzwfRR1Uh1lvyaxjwFKV3ou2CiRI/ok98VQqGwkI9OKCC2Gqa/BqGc4qqt76WD2SWFWG0tWtyNBsx9qeTjRbXvKW3Fn48hm7mMc1b+hxV5re+jg/GBNHNW+ocBQrF6y5k0Ng0ylvqYGNhLHpJP0vu9eZhWm1ZJl8y3iMPTvNWsjCPIr3r8LG8aYDUDUkZbNr21ud/KyZG2FvaHDVonwePYaGGum8pB1Yq/RO6MXTVy7nedJMfKmsdtguQt0CepstR1q353vJX5ii3hto3A/eWJkcNhuaKoplo535vmskPjeEairMpAit9jha3tz7fz8IYjU99bcmTHzKjYwMS7rOP7s3jiTkKZCbHoVHMDOB1fBNCDWhMTeYmY1sqKgwJOaqIlN+P9RcsUEGNn/zQeMeDwDgLYoMty4sBkb4Wow1ozCwjX4sd/TZiA/JmLZqItxEDmbGFvWvpq4Tb2RSVJ2gCZjd082Shy9y63l+wywYSFWT5f0qaihzE7qfXSC8G4RDpHSsDkOl+vOX/TG7uvjsAFOc81K6jrSkK/7+9r8dcLHgB5XA4HA6Hw6GP+o9bn8F/yegu7Y774b4Z8d3qJbztjrCNGioPw3Q73g/L1WU1vL2+RH/8JLi/u/+fTuxz01q+NNLsV42KncZDxBdUa3turNxwaZariIrphVPZFJp3lW8ogsq1Zd3fr3wKynVt0EAD1CrK2hY6sPVcrQqNNRJbR99UvH29o2jW1nwRmiX0991q1Xq9FypP6PPjr7owqr2v7oT3WrNV8ofvlYeRf8Tg/Uf16adQKdWqd/cD4W7w3GohgyiLa8vm4PlROB5Fs7bBShBe/IbJLCEZbsY9PtWFcgnFTdWNsG8tf88fz/fufp7k0Te059pN0Eeh4W4o1wRhOEAfnteHo0ZUa3tAdkY17+PrSMC0vaIPtbJgCuX9YdfH1tM3VDOXghdIFWRMeHyoY9qQR2FfFfbeUTWata1L78Ph0MtDL0hO2lA8IZHPpVLpeX/au/6yEgbeNqStdKnNC0akzT+Kam37ASoE63tUCOpu3PnazKO2/fpi9/WLsDzkrKfNJGo7HEWvNvOXX/lQoL17NdR8Qht+PBy0tbzsfRROf1bvhfW9/1O0tuNR9Gob+VdW/1UZlarlcrku7F8bd3tXm3vtZmnVaNb8MdLodVRdPq3dgtlooG6v17a5cWk/rZsBbf5RTYpHCeVD577cbI1ardaqIpjL4cBcmcIPL/jqg+H+MDBoLF/fB+7Y6nE1fB09CvWW9xm1imtUQt3dRw20pdo8HfVzdItL4nA4HA6Hw+FwOBwOh8PhcDgcDofDIfEvKAfIH/YMtLsAAAAASUVORK5CYII=;" parent="1" vertex="1">
          <mxGeometry x="780" y="290" width="304.29" height="160" as="geometry" />
        </mxCell>
        <mxCell id="uVOMfWOmMJlPaPXSzogf-23" value="" style="shape=image;verticalLabelPosition=bottom;labelBackgroundColor=default;verticalAlign=top;aspect=fixed;imageAspect=0;image=data:image/png,iVBORw0KGgoAAAANSUhEUgAAAUcAAACaCAMAAAANQHocAAACNFBMVEX///8pef7+/v8AAAADqfQcdP4Ab/4Aaf6euv/2+v9vnP4ve/7q7//Z4/8ApvSxz/+Xtv7x8fEAo/P///cNAAAAAD+/kWyew9v10bJXMgD/6M0An/Oc0/lWufZ/VSMAADy8cgvxwZXr9v7T6/wAAFEsFABYjMtLf6Pl+v+ucUu02una6P/Pz89dmr/z/v9AbpKk4//Af0a20//d3d1Ds/V6w/cAAFhWj7Ozyf56pP7///IAAA+Sz/nK6PwAACUxAADJ2P+ixP8eAAAnAAAAACoAABr//9zi15MAADJQi/5ChP6Eqv5akf4AY/4+AADL//84AABqMgCpqan//9AAP4nawZxCJAA6LyonM1mnyN5rTzIrKTDHxcjb0src4Oy+j2pIGQAwhsB3SAA5QVx2iKvDqHd7PABnqe6ql4LnzZQ9U1QrVYnGo1ikXgCw49wAHDglRWr/+7i5iknnpWFxssenYzbKrpUAUZpjNillIwA+YpqppH+QsLOPaEonZYDcm2jIyrhRAACUs9YAIFFte1y7vt6YkbzH4uIAIXRYcIJ3YUw6KQD45NTTqYfXsqd6IgBZk8ZDdKmadD8oUXr6zIoANneCkKmL0+MLH1+4nWb/3tVbST7JiU6URgCchmKHUzbXxYYrcaGfbTTnsGhtfo/GlkcAHx9HbWqXknIALj5LSlVKHjZXeJKNdWxKT0HZpZUAMmEPMnZgEQNhQzTF6qPHyaUbQ1tomKzMgzAAAG1vamwwLAAUMtj2AAAP30lEQVR4nO2di18TVxbHh7kJMQIBkhQpJMuSaH2AFCSpMBAe4SHio7qIr4qlLXS11mIfW2vVVrFs7S4o1Wq1ta6rtt12267b3T5295/b+5iZzOPOZGYykxgyv8+nVWYmw9yv595zzr3nThjGlStXrly5cuXKlStXrly5cuXKlStXrly5cuXKlStXrly5Klr5c1OhH/+xEFu12pejdlUMVha6GYVWrMbnLctVXt/4QKEbUlixO8pzpohJllUVuikFVbXPFowQ5PZSHib9ufdpEeSqQjemgKqxp1djjuOl62uqxm3DWFZWvqPQzSmU7HIyRBW7StUgB+zECHv26kI3qEAat8/LEJBdhW5RQTRoV8wjctxeij270k4nQ1Q+WOhGFUA1NvdqJF/pBeMDDmAsRVez2l5nLYAcKHS78qwBu50Mz3F1afVsf4UjGOEIWVqxzyonRkeiUjLIFrtD8IzKawrduDzK1sRaCbJ0ZnSrlE6m3FduTjocvd0l07O3K3q1b0eVOVVX6IwLJRP7DCoglJv2sZWDOgNsqSwxVCrM0buTZVhTYiqrB3Us0lcaafYqxegGPaw5jJBj1xZdi4wVuo15UKXSSZSvMs+xuloPpLe70I3Mg1Yrm2+NIwSp07UHCt1Kx6VeTLDIUc8iV36a7d+partVjnogfVsK3VCHpXQyuXDUtciVbZCVlIZb56gDcoWn2bTEOgeOOiDHH4M0O7R04OAh6pn6w89t3WD9xi27KPOOuXDUBlmeLc0OTR05ErfeFK1bIrUe5X9+HjStoV5Z/yRYb50jq4p5LHL0bzEAckD/YeqnAXjBclOoangREL00gyGF6sJPOMGxi9pi8xylBqkJ0juu+yyh2TQAa5+13BaaGn4DBN1AlBziqEysrXNk4RAhqnKAao8V+mn24suoub+32haqIMenIZ2pY3sAeIpxjCMl5rHKkZXet1JjsUe3ku94P3glDE7kMNirxXNkmFfD4NSzTnFkNZYIDXPEN6Ec1uKoW1p6EjS9dgbMRSw2hiqR4+IZcCrlFEeqk9HjKKcGc6FYLMaqUWpy1JvRfX0IvMC9AXqW28jPb4KM3mpjuD+Apk3oOHS5fRjFbwFoD729G5xGc0kNk+/A6777kJXfVOTYcAa8u0HGsfbsfviJR+eOSjhOnYeH3ttkEiN9FNPkCD+RiqQyZ5hYJBlNRJMR1WSlNsdy7fKK98HYGmZyGjyqUnEcQRw3grWEY124iec48ulGePY0DKdGr5Er5+Y1OL5KRl6RY2jpSf7mp3oFjlsvXMRH+ubbzGD0a5kjjSO6PhL1BCPiGSaWCCAFA1E/Y5RjmW9A42lG/wJOxFG7xz4lBxY7iaDFXYKhM43j2Afg+sLUH/3oJFj/4RSE9Yzc3wscj18El9ukHLdBZB+1dl74EwBPtBOOPa/8uW/maGcdNFJ6qK6hLs0CChVH2IFT0cZgQMKRiTUGPB7IEf5PCVKHY1mFRjDePN0HrY5pBqSfioID2xgyMhpHADYTy1lKD+ND0FU9peK4qfPKedDzrix+DF0FI9Xk96bBPsIR9JzAWcDSEFhvYtrZX6Y5WajmmPRAiFASjklMsDcRkB7NzlHD1XDXsB9gXt8DnpCOT4swkF5mtDh+3CZ8+HoKnzsJ9smchRA/9twkVwocP8lE/HBIjhCO10kyNfEOuGEirdLZmaDmGMAUJcSYmIcYYhyCDCT8xjmOt9CeBgaPBEqHLKfhngeAWBKVI+/bF/eCjwmmO+CRrGOLcfi3N2X2eAf08cMHM7kHj5wSf90Bmj5ljKpKZ52UwjHoSURlHCPIDuMM/EvQ42mMMUY5wjSb9jhwaFuuhaNh7b0wuCWi4G7DgJJwp3HsaedRXMz4JHncRMbHz459DkdOST4j3oz/R2iTcbwjjtHZ5e82xTHZm/LHpT2Y6YU/NcKQh0khvCnjHMt8lHkf7gtJlNOzLBye7QeXUowpjiMUjvDTd4eQGxM4Qqd242iGI7rEIkfdolE1RzTuyjiyScyR5TlGTHD07lQ/zidhCUc+VIFt2w1DG4G0PsePWwXJXIQY98AhdHheao+3tO2xwzhHPz2x1uKIIkRdjr0mONJ2MXSAyymh6S/iOIfBTesT40E9jggFPRcROYZm0z3QuWfGx2EB1b0h7MgyHGHEf9loKK6/M4Eah9vIUbWLAbrIvwp2BC2HhDOj0EcsixGxyLHhMFByhB95RF/+kXIEWzdI/bUweEB/3SvjWL8/8zBZVKnXTMc5ovvLtTQ0lklEUESHUrj70FVL2tMBhtHQNwHpKjkyzet66PMbmbxwLxiR2CN3FYwR8s39YF8b4XgQD63cxvDYPO1eFO3QL3Z0mmNZudwgxfgPa/QMAL0oT4QutpYIxe4PAOz73OT03Oeqfo0vHr7ZWVs7OvtKSnpnxDFey039BLNA2TzFtt2g7yG88/dp0IcTQ8gxDPPz2tHzaXF8zqaBbM10mqPC1UA/sSxJaSGx023QpYrC8xKjJBQ8uGkpreYYen4df22TkqOgJmRkmfx6cj9//CAxvvon+x7ySfrPsltoSzuxtszRjL/Gv2FA8jyhL8WImjT+RwDaVRyZhvNDADw8ykjne8TPcBdgZAPAV18vyPMZYV1h5OkFwhuQDJIJTf0NkZwT53umwWZuaRqAb2aMJjPaibVxjjnEj8QgpSM57F+yB8Q9uVYikpOH4N9Y/iyT+VPyKXxeeSvpLaQfCuHjkiv95JDyFlrKvuXfCEeUzzRayWf4X1H8lXwaiwkmOcZRfp2E/yokvzbLsfhfFmBgy7+R8ZGJ4vmepNn5HvF3FPnLAoxs+TfE0e9Bc0Dov2A0Zp5jsb8sgFbPY5BjMBBolMyHxxN4TjLQqMRoiKM6GC8utRjYRqjBMQol6cGMP5IINgajKeWygjGORb4TtmWXRY58OKA6wJhZL5RypEz7FJFaDGzcslQHYJpjcZeMa5Si5J9jsUeQgxb9te0cCw0iRxkwyHxwVG7LHj3yO6jWIgqGuqzlM/Zy9O6Ur2MfP4xXFr56qV3jqR9DqTcoGOFIPkujZonjgOyR3gRg+NtvfzggncJ57KW35KrJkWHjqVRcFSqiYikLHL3dslmViWlwcJ5lQovH/k44Tp29+fjvpGOzvZyQss7FpKIJjycB43BGehQeTyYtcPTJx8Gl9PBm8rdOgq8js778GKsli6uh2GOS1KUEgmItD7yPP54MwCPmOSpywlBd+pK0NKm2FnHMTBXKZwpD+Dh/NiSbXSQf5mcSY4zk085s3lHut87GkYk0ovkIxDKYJCAZfyqSaAyiOR/THL3jimYtpXu2ShYWrgoT4biTh6bursOVivw8dXMYbG27chg0bUEDwQFcRDEjrOpzb6N6vI8ObQsLFVMNZ6fhke82GZ2eNSNWb/e+miMu5vF4Iik0SRYgc99Mb4A3UfMcVdvkm9eB4ZsaHLm6IaFSMSlc/NbbaYAW/Lg3hCv56pVFfoml6YPdPMcGvs5xLukAR/X7KPQ54mKeFMPEPQE0eYuPJYMeXD1lnqN6zyaqXwSnDgkmyeLxkWXxFP+9ITB3rpblvk+DkXbCceSH9PUF/5UFJjT79UIly175DS6WgPfpgLfp8tf+AxXnYo4TZ8Dc/Abu+B67d0LwT9qt52pU/RrX6CEPg1ZlAoRVstGTTCYscVQX+HAbkdG9d1Qg2QGe4f1Mw49Che77/eDdNswRKFdGm/f3/IJOQVyk+I67xvfrOkDWB+EZeWWkTarSa6mCIxOLorUDtDiIF2PwAMlEYBTkRyfMcqQWnJFxbW4z7xwyHB8AwPdI7j4pJoMcHylWRuv3Azy+/ipevI1UlGbq7O/z9X92S+8lhSqOaA0mKnKMk7PwJuSEWY70yHAULauCf5LGZjieBE1Ch5zsx70XctyccUqjx3448NyBMObIfUGq8xiRY/10z0wbeiTI8ZTNe+6I/DrLNEqOcdx9lRxFwOY4as/zfHYX5oYnYjKOo1fBZcGO6qdRaYmMIx5YsRDHiYtgn1/GcXJ3ZhX8Z1t3lIiq9mk21kmO3p3aUxGhs3vA3KCM48SPIhpkXFvlHLnzaIX/3JFj6wxwvOQMR1Y7GHeUo96rgWAcM7JZxpF7WeyqkGOfwh4foKodP/IzpF9fVXOE/VpRCmC3tNNsBznqr8qEZocA3gUtHR+FSkXudlg5Pn4BxkgoxPuZk2At74Hupcn4mNMuVmNiNavOjPkZSxx9uhOModm0YI9rXyOHHoiViqH74CCiluEI7Y8Y69IQ4SheXL+XxI+j11S+3X61GLVHHPdkOMasc/RRX67AneX3qjXs5evkYTwdJYcWYSBNKhXvALIrQcaxD5Hdtp/4GXTxMDw3cbf/K2KPqJjyhtMGqVmVq+SIwkRPJn5UGqpxjhrvE+dug56Zhc4Ls/2CPX0C/cJ8ZyuOrWF6/LC188K/ALiVknNkvgRgeE3nbTC3Dtw6h4J4dDHS6X8Lcff7aPNMa+fUT3eNluNZkEaarcoLUT4ThMO0P4kC8hw40p0Md03wqWO/EOMZvY9/QpEjN8mzAdf5CtoMR74m8uc1HSjFRkW8k+dh7PTNL3HoZ8hObq5OqIx0sINrvFtYxbEdpYO9DJOSF/OY5rhdY9Jl9Mo7uKnrq8TAEDV/GEfgoU5+ZyofvzfznRh/cDYMRmZieN/IU23kaqg25l5YyGxCi0JlpKndl6aksYtGPW+Gq6Fgl0YFPTHLHGk7ZxzSr2DEiXkJLdHTbDXHuIffGCdMm1nhSN/J5YgapsF/HHcvUlENkrKukPLg7a3BxpT0aCwRDDYmWKW07NFxcwxN/ncNwjd5OLOvI0+izZ9R91+nkolEVLFn3R+BajfIMQ8FFJl53ZHlPK+T0YrFqeuFvCgHDXLMw3eohCbv/g9Pfn99yDmnQhfldXvO1AHk5732XCfaY9iZb4oM9S0VTnD0bs9/0/IrtatxhCN1+/pKUqVqhHSAY3mNE+uej5dqVC+zt58j/W0KK0t+Zem9/Ry9RV40akzKt+6Zf3+4gmOLgqO3YuX3aka9cdNboa4rM4NR9WU2eUysCyrlEkN5dy4xM1tdobxdSZgjlLK8wrtzR41ldSunNStKxBxh7KOMIb25SHmvlf2mZpmyF41bl9YrzVaiKrMWjVumWFpfGEd/47AN8motJqxQZXtphWWOJeNkiFTfQmMTxh2lZY6UNNselUBiLZeRHZym5Svu3eqW5ICryfIK+5UpdrvtHDVfK7yipb+LwYJK6Js0ZdLdxWBBpZNYy6VZyWdNxf6OHuvKsmHOLMdCN6dgitnpakorsZarS3sXg1nJ36lXarIxGF/p31ioqxbVNKxFla6TITLwXhpDGJV7rEtOA7ktKvDKaaVshaire3WOqim5WR66cioDYEttxtGVK1euXLly5WoF6f+cEbzDnooMMwAAAABJRU5ErkJggg==;clipPath=inset(12.41% 51.33% 1.06% 0.67%);" parent="1" vertex="1">
          <mxGeometry x="240" y="100" width="113.59" height="96.24" as="geometry" />
        </mxCell>
        <mxCell id="uVOMfWOmMJlPaPXSzogf-24" value="" style="shape=image;verticalLabelPosition=bottom;labelBackgroundColor=default;verticalAlign=top;aspect=fixed;imageAspect=0;image=data:image/jpeg,/9j/4AAQSkZJRgABAQAAAQABAAD/2wCEAAkGBxEQEBUTEBIVFhAWFxYWFRUVGBAWFRgXFxYYGBYVFhUYHSghGB0lGxUXITEhJykrLi4uFx8zODMsNygtLisBCgoKDg0OGxAQGy8mICUtLS8vMi4tLS0vLS8tLy0tLy04Ly0tLSstLy0tLS0tLy0tLTUtLS0tLS0tLS0tLTIrLf/AABEIAKMBNgMBIgACEQEDEQH/xAAbAAEAAwADAQAAAAAAAAAAAAAABQYHAQMEAv/EAD8QAAIBAQQGBQoFBAEFAAAAAAABAgMEBRExBhIhQVFhInGBkaEHExQjMkJScrHBYpKi0eEzgsLwsiRDU4Px/8QAGwEBAAMBAQEBAAAAAAAAAAAAAAQFBgMCAQf/xAA0EQABAwIDBQcDAwUBAAAAAAABAAIDBBEhMVEFQWFxgRITkaGx0fAiweEGIzQyM2Jy8ST/2gAMAwEAAhEDEQA/ANxAARAAEQABEAARAAEQABEAIi/L/oWOGtWl0n7MI7Zy6lw5vBHprXPPZaLleXOa0XcbBS5A3vpXZLK3GdTWqL3IdKXU90e1ozy/dL7Vam4xbpUvgi9rX45ZvqWCIGnQLaDZeF5T0Huqqbam6IdT7e/grneHlHrybVCjCK3Obc5dywS8SBtGk1vqe1aZrlHVh/xwF3XJaLR/RpSkviwwj+eWC8SYpaLypTXn5QeG1wi2+yTwS7EdKqpodnxmSSwt1cToMzc9OOAw4wx1lW8BpOPQc8Pmigadntdp96clxcpfVvad70erreupN4+JbowSWCy8BgYif9aVZfeCNjW6EFx6kOaPAdTmtFF+nqcN/cc5x1vbysfMlUmda2Wd4ecqwe7Cc13NPae6x6YW+l/3tePCajL9WfiWSvZ4zi4zWKf+4x4EO9Ea003RcZ4e7jqzXDFSwXju7DR7I/UFLtEGOZoY/Q2II1B3cR4E7qqu2VU0pDoXOc3zHMZHoMdApW7vKRtwtNHD8VN4/ol+7LhdN92e1LGjVjJ745SXXF7UY/bruqUXq1acoP8AEmsep5PsPGoSjJSg3GS2qUW011NZFvLs6GQXZh5j5yKgx7QmjNni/kfnRb8DMNH9PqtLCFrTqQ/8iw149ayku59Zolgt1KvTVSlNTg8mvo1mnye0qKilkgP1DDUZfOBVtBUxzD6Tjpv+cQvWACOpCAAIgACIAAiAAIgACIAAiAAIgACIAAiAAIgACIAVbTPSZWKGpDB2ia6KzUY5a8l9Fva5M6RROkcGNzK8SSNjaXOyC+dL9LIWNOnTwnaWss4wx96fPgjL69WpWm6lWTnUlnKWf8LkfCTlJyk25Nttva23m2y4aJ6Ju0YVa2MaG5ZSqdXCPPu4mgjjho4ySeZ3ngPYddVQPfLWSADoNw4/nw0UPclwVrVLClHor2py2QXbvfJGg3PohZqGEprztTjJdFP8MMu/Fk/Z6EacVCEVGC2JJYJHhvO8PN9GPtb3wKPaG1yxhe49lo8Tw1J4DBXFJs5oIFru9Pmua4vO8FTWpD2/CKK89ueZ9vbteYwPzSvr5KuTtuwAyGn516LTQxCJtgvfdd1661p4qG5LN/wSk7ootYamHPGR3Xfh5qGGWqu/f4nqNfR7NpmQNBaHEgEkgG9+eQ0tusqyaokLziQqleNhdGWGcXk/3PPQrSpyUoPBr/dvIn9IMPNrjrbPv9ivNGX2lC2kqi2I2GBHC/ngVZU8hkju7krPZrRTtFNqUU90oySa7nmiuX1oNTmnKzPUn8MsXF9Tzj4o4oVpU5KUXg1/u3kWewW2NWOK2NZrganY22nSfTezx4O429R4YZVddQMzIuPMdc1jV5XbUozcKsHGS3PfzTya5o5ua969iqa9KWx+1B+zNcGuPPNGxXrdVK1Q1K0cVua2Si+MXuMs0i0fqWSeEttN+xNZPk+EuRtKasZUDsPGOm48vbPRZmoo3wHvGHDXePnhqtL0fvyjbKWvSeDXtwftRfB8Vwe8lzCbtt9Wy1o1qLwks08pR3xlyZsdxXvTtlGNWnv2Si84yWcX/u1NMrK2j7g9pv8ASfLh89VY0dYJh2XYOHnxUmACCpyAAIgACIAAiAAIgACIAAiAAIgACIAAiAAIo++7zhZaE608orYt8pP2YrrZi1rtVS0VZVarxnN4vguCXBJbCyeUa9/PWlUIPoUfa4Obz7ls69Yh7ku2VprQpQzk9r+GK9qXYvHBGgoYBBF3jsCRfkFQ10xml7tuQNuZ+YKc0K0c9Jl5yqvUQeXxy+HqW/uNOhFJYJYJbElkdVjssKNOMKawhFYJfudV5WrzcMVm8ijr60O7UrzZrQeg9z+FcUlN3bQxuZz5+wXTeVv830Ye39CAe3a8zlvHa8zlI/N6+vkrJO07ADIafk7ytDFE2JtguBgfWBzgQLrpdey77wdLotYw+nUSEr3pLJtvgQeBxgWlNtmqgj7ttiBlcXtyxHndR300bz2iu222p1ZYvYlkuB5WjsaOGiBJK+V5e83JzK7tAaLBdTR9UK0qclKLwa8evkGj4aDHlpDm4FdM8CrXd9tjWjitjWa4fwc2+w069OVOrHGEu9cGnuaKtZrRKnJSjmu59Zb6NVSipLJo3OytpGpZ9WD22v7++m7AhU9XTd2cMj8ssd0huedkrOnLbHOEvijx6+KGid+ysNoTb9RPCNRct0lzWPdiadpPdCtdBxWHnY9Km/xcMeDy8dxjtppNNprBptNPNNbGmbelmbVRFr88j7/N6ytVC6mlD2dPb5uW8Qkmk08U9qayae8+yk+TW+XVoys8306Ps8XTeX5Xs6nEuxRTRGKQsO75fqruGUSsDxv+W6IADkuqAAIgACIAAiAAIgACIAAiAAIgACIR9+XgrNZqtZ+5Ftc5PZFdsml2kgUXyqW3VoU6Ke2pJyfywWT/ALpRfYdqaLvZWsO8+W/yXGol7qJzxuHnu81nVLGTcpPGTbbbzbe1t9pp3k8uvzdF1pLpVNkeUYv7yXgjObBZ3OcYR9qTUV1t4L6m4WSzxpU404+zCKiupLAt9qTEMDBv9B+VU7Mhu4v09T+F3kJpA9sFuwl9ibIy+rO5Q1lnH75mQ2xG6Sika3gfAgnyBWjpnBsoJ+XwUEfSRwjk/Pbq3K6bRWcXgjq9KlyO6tVS2NYnV6RH4fofRlkujRh/SuPSpch6TLkc+kR+H6D0iPw/Q+9F6t/iuPSJcj59IlyPv0iPw/Q4doj8P0PvRLf4rmjUcscT7ZxSqJ5LA+mfd68nPJdbLJcP9BcnLDvK5qtvBZ7kW6w0PN04x4Lxe1/U0P6ejJnc/cG28SCPIFQ69w7sN4/b8r0mZeUK6/NV1ViuhVxb5SXtd6wfXiaaQGmlh89Y57OlDpx/tz/S2bqil7uYHccD1VBVxd5ERvGI6LL9Hrx9FtlKrjhBS1Z/LLZLHqxx7DbzALTE2XRK3efsVGbeMtRRk9+tDoNvrcce0nbVjwbJ0+4+6gbLkxdGeY9D9lNAAplcIAAiAAIgACIAAiAAIgACIAAiAAIhlXlNra9tjHdCnFYc5OTb7tXuNVMa04nrXlX5ai7qcfuWWyxeYnQH7D7qu2o60IGpH3P2Xq0FsynbaeOUdaX5U8PFo1szbyaQTtE3vVN+Mo/saSedpuvPbQD3XvZzbQ31JQAFepygrzu/V6UF0N64fwR5bSCvK79XpQ9neuH8GQ2zsfsXngGG8acRw1G7MYXtYU9Rf6XZqMnTTzR8+jx4fU7QZm6ndojeur0ePD6j0ePD6naBcp2narq9Hjw+pw7PHh9TuOGfQSvvadquqMEsgz6ZN3Xd2p05rpblw5vmTqGikrJOwzqdB8yG/wASOcswjF3JdV26nTmunuXwksAb+mpo6eMRxjAefE8fgwVPJI6R3ach11aalFxeTTT6nsZ2A7rwsIt1HUlKLzi3F9jw+xoHkrr42apB+5UxXVKK2d6feU/SmCVrrpZa8/F4lg8k0+naY8VSfdrr7mjrfrpS7kfMe6z9H9FUG/7D19lo4AM4tAgACIAAiAAIgACIAAiAAIgACIAAiGMaZrC8rR80PGnBmzmR+USjqXhKXxxpy/Tq/wCBZ7KI74/6n1CrdqC8IOjh6FSvkzfr6nyf5I0cy7yd1tW1pfHCUfpL/E1E57SFp+gXXZ5/YHMoACApqHDRyAigbxsGr0o+z9P4PAWtrHPIr15WdU54LJ7VyMZtvZTYP34v6ScRoTpwPkeGVjTTl30uzXlAODOqYhww2TF1WDDCc8/dXDr5k2hoZKuXu2dTuA+ZDeeFyPEkjYxcrm67u1cJzXS3Lh18yWAP0ClpY6aMRxjDzJ1PH/gwVRJIXuuUABIXhAAEWNaWP/rK/wA8ic8k69baH+Gn4uf7FYvqv5yvVn8UpPscnh4Fx8lFHCnaJ8Zwj+WLf+Roqz6aQg6NHmFn6b6qwEauPkfdX8AGdWgQABEAARAAEQABEAARAAEQABEAARDOfKrZMJUKyW6UJPq6UfrI0Yr2nF3ekWKoksZQ9ZHrhjiu2Lku0lUUndztPTxUasj7yFzRpfwxWZ3DbPM2ilU3RlFvqyl4Nm2mA2eRsOiF5ekWWDbxnDoT44xyfbHB95YbViwa8cvv7qBsuUfUzr7qdABSq4QABEIK/X04/L92TpA3++nH5fuyn29/Cdzb6hSqP+70KipVsJJYHZieSo/WLsPRiYUhW5aLBctkzdN444U55+6+PJ8yEbPZd1idWWOUFvLHZcs8dQO4FycCNxHHS2d93K4PCdjCw9tWcAH6CVSoAAiEfftr8zZqtTeovD5nsj4tEgUbyk3jhGFCL2t68+pbIp9bxf8AajvTRd7K1u7fyC41Endxl3y6zuuzVvJ5Y/NWCDawc3Kb7XhH9MYmVU6Eq1SFKHtTlGC65PDE3SyWeNKnCnD2YRjCPVFJLwRa7VksxrNTfw/Kqtlx3e5+gt4/hegAFGrtAAEQABEAARAAEQABEAARAAEQABEODkBFiekt1eh2udNf030qfyyyXY8V2EtoPfCs9o1ZvClVwjLgpe5LvbXbjuLbp3cXpVn16axr0sZRwzlH3o+GK5rmZTQqYmjgkbV09nZ5H7H781np2Glnu3LMfcfZb+Cp6EaQefpqlVfroLY3nOK382t/fxLYUEsTonljtyvYpGyNDm5FAAc10Qr+kD9ZH5fuywFc0kfrI/L92VG3f4TubfUKXRf3ehUNUfTXYd+J5aj6a7DvxMQQrojAL6bJq5LdHBUnsax1XxxeXWQTZ7LssMqsuEFv+3WWGzJJo6gGEXJwI1GZ5ZXvutvyUeojY5h7eAVtABvlRIAAi89rtMKVOU6jwhFNt8kYzfV4StFadWWcnilwWUY9iSLNp3pAqsvMUn6uL6bWUpLd1L69RTaFCderGlTWM5tRivu+SzfUX2zqbu294/AnyGf58FRbQqO27u25DzOX48VavJndPnK0rTJdCn0Yc5SW19kX+pGoEfct2QstCFGGUVte+UntlJ9bJAqaufvpS/dkOX5zVrSwdzEG79/P5ggAI6kIAAiAAIgACIAAiAAIgACIAAiAAIgACIZf5QNG3RqO00Y+qm/WJe7N+98svB9ZqB11aalFxkk4tNNPamnsaaJFNUOgf2h1Go+fNy4VNO2dnZPQ6FYXY7VKElKDalFpprNNGqaLaSwtcdSeEbQltjulh70f23FJ0v0TnZG6tHGVmb63Tx3PjHg+/i6/ZrQ4tOLaknimm00+Ke4vJooqyMOaeR04H2/6qSKWWkkLXDmNeI91vQKLo/pupJQtex5KqlsfzpZda8C60qkZxUotSi9qaaafU0UM0D4XWePYq9imZKLsK7StaTP1kflX1kWUrWk/9SPy/wCT/co9t/w3c2+oVjQ/3uhUHN9Ndh26x0ST1sTsxMX2VeHcvrEn7gvCOqqUtksXqvji8cOsruJ7bqsEqs9myKwxlw5LmT9mySx1AMQuThbUXF+WV77uKj1MbHRntmw1+eiuYB5Lwt9KhDXrTUY883ySzb6jeAEmwWeJAFyvWUPTDStYSoWeXKdReMYP6vu5RukumE66dOhjCjk370+vD2Vy/wDhTqlXgXNHs6xD5M9w9/bx0VRWbQFuzGeZ9vfw1StUNN0C0bdmh56tHC0TWyLzhHhyk83w2LiePQnQ903G0WpesW2nTfu8Jz/FwW7ryvx42hWh37UZw3nXhy115Z+qCjLT3sgx3DTjz0055AAVCtkAARAAEQABEAARAAEQABEAARAAEQABEAARAAEXxUgmmmk09jT2pp5poz7SfQR4urYlzlRbwx+RvL5X2PcaIDtBUSQuuw+xXGeBkzey8e4WAycoScZxcZrY4yTTT5p5EndV9V7M8aNRxW+OcX1xeztzNVvm4bPa1hXppyWU1smuqS+j2FEvbyfV6bbs01UjujLCM+r4X4dRdRV8Ew7MmHPJU0lDPCe0zHln4KWu3ygJ7LRSwfxU9q/JJ7O9kvUvexWuGCrRjJey5Ywaf92GJlFroVaEtWtTnCXCaa7m8z4jXPM+yaedpFsDpiPv5FeodqzROF8x0PzmFfqkdV4Yp84tNPqazR84lQu+9HSls2xea+6JmvfNJRxjLWe6O1PtMBtD9MVVPOGQNL2uyIGXB24czgRjqBraLbdNNEXyuDHDME+Y3m+gxvhvBM5ZKMZy6dSNOG+UpRj3Y5smK2k1hsy1Izxw92mnL9WWPaZXXtjnJyk8W/8AdnM6JWg1uzP01FSs+s3ecyPQb7Dpf0z9dt50zvoFm7r+p3X9Fe7z0+nLFWemor4pdKXWlkn3lPt1vnVk5VZynLjJ49i4Lkhd11Wq0v1FGcl8WGEPzvBFwubyc5StdT/1wb/VN/ZdpcXpqXQHxPv5gcVW/wDpqtSPAfOhKpdgsda0z83Qg5y34ZJcZSyius0rRXQ2nZcKtXCpaM0/ch8ieb/E+zAsdgsNKzwUKMIwgt0V4t73zZ6yrqtoPlHZZg3zPP2CsqagZEe07F3kOXuUABXqwQABEAARAAEQABEAARAAEQABEAARAAEQABEAARAAEQABEAARddWClskk09zSa7iEvHRWxVNsrPBPH3daH/BoA6Rvcw3abcl4exr8HC44rNtKrtpUG/NRcf7pv6tldT2gGppnEsF1lqkAPwV40buCzVsPO09bL3qi+jL5Y9HbJRwdOhBNZNrWl+aWLOQZ6tnky7R8StDRwxgX7IvyClQAQ1LQABEAARAAEQABEAARAAEQABEAARf/2Q==;" parent="1" vertex="1">
          <mxGeometry x="460.03999999999996" y="100" width="160" height="84.13" as="geometry" />
        </mxCell>
        <mxCell id="uVOMfWOmMJlPaPXSzogf-30" value="" style="shape=image;verticalLabelPosition=bottom;labelBackgroundColor=default;verticalAlign=top;aspect=fixed;imageAspect=0;image=data:image/jpeg,/9j/4AAQSkZJRgABAQAAAQABAAD/2wCEAAoHCAgPERAQCQwSCAgPEg8JFQkQCREPDxIZGBYZGSUUFh4pLi4zHB44LRgYKzs0OC81NUNDGiRISkgzPzxCPzEBDAwMDw8QHxISGj8oIys3NjQ0PzY/OjE0PTQ/MT80MT80MTQ/NTQ0PzE0NDExPzQxNDQ2ODo0NDQ0MTE/MTExMf/AABEIAOEA4QMBIgACEQEDEQH/xAAcAAEAAwEBAQEBAAAAAAAAAAAAAgYHAQUIBAP/xABGEAABAgMDBwgIBAQEBwAAAAAAAQIDBBEFBhYhNFFTk7PREjJxcnN0sdIXIjFBVGGU4QcTgaKRobLCFIPB8CMzQkNSYmP/xAAZAQEBAQEBAQAAAAAAAAAAAAAABQQDAQL/xAAyEQABAQMICQUAAwEAAAAAAAAAAQIDBBEUM1GBkaHwBRITMUFCU7HBFSFSYdFxgvEy/9oADAMBAAIRAxEAPwDZgAAAAADxJq9N34LlZGnoSRUVWq1HK/kqnuWlaKVj8Qb1rCR0lZ7+TMuTkxY7XZYaL/22r/5L719yfNcmbSUnMx3thSkN0xHctEht9q8E+fsNriE12ddtZEz7mJ9F6jWqwkqm14yuz8ezZxeAxldn49mzicDO2/h3eNURVbCaq5eSs1lT+CHfR1ePRC+q+x7sIbqZuPNtE9M0PGV2fj2bOJwGMrs/Hs2cTgZ56Orx6IX1X2Ho6vHohfVfY92EN1M3DbRPTNDxldn49mzicBjK7Px7NnE4Geejq8eiF9V9h6Orx6IX1X2Gwhupm4baJ6ZoeMrs/Hs2cTgMZXZ+PZs4nAzz0dXj0QvqvsPR1ePRC+q+w2EN1M3DbRPTNDxldn49mzicBjK7Px7NnE4Geejq8eiF9V9h6Orx6IX1X2Gwhupm4baJ6ZoeMrs/Hs2cTgMZXZ+PZs4nAzz0dXj0QvqvsPR1ePRC+q+w2EN1M3DbRPTNDxldn49mzicBjK7Px7NnE4Geejq8eiF9V9h6Orx6IX1X2Gwhupm4baJ6ZoeMrs/Hs2cTgMZXZ+PZs4nAzz0dXj0QvqvsPR1ePRC+q+w2EN1M3DbRPTNDxldn49mzicBjK7Px7NnE4Geejq8eiF9V9j8Fq3Pt6UYsWPBSJLtTlOiQoyP5KaVT20+dKBIeHVZEbPFfxCJKrs2Sz7Ss+aarpKYZNtSiKrIiKrfkqe1P1P3HzxZdozcnGZHlHrDjMX2V9V6e9rk97V/3lN/k5mHGhQ40P/lxWMmG10Oajk8ThEQ+yVJFlRTtDxCPU3SKh+gAGc0gAAAAAAp9+b0NkYf5Mq5HWrFbk/8Ak1cnLX56E/X3ZbgZHN2bJx3vizLXR5iI5XuiOjPqq/xyJ8vZkNUK5R41K1uQyxb5XbKIm9SnQ2R40RGw2umJmI/ko1Kue9zl/mq1NluddiFZ0LlRaRLTion5kVMqNT2/lt+WnSv6UqVly8CTifmyTEhzHJViRF/4itRfbyeVWi+6vSe1iG19cmxZwNsQ7evE1WVRE7mKHeOna6zSKql7BRMQ2vrk2LOAxDa+uTYs4GSZPK0x/DXPndS3F7BRMQ2vrk2LOAxDa+uTYs4CZPK0x/BPndS3F7BRMQ2vrk2LOAxDa+uTYs4CZPK0x/BPndS3F7BRMQ2vrk2LOAxDa+uTYs4CZPK0x/BPndS3F7BRMQ2vrk2LOAxDa+uTYs4CZPK0x/BPndS3F7BRMQ2vrk2LOAxDa+uTYs4CZPK0x/BPndS3F7BRMQ2vrk2LOAxDa+uTYs4CZPK0x/BPndS3F7BRMQ2vrk2LOAxDa+uTYs4CYvK0x/BPndS3F7IuaioqOTlIvtRUqink2BaT5ljliojYzFRqq3IioqZF+SnsGVthWWlZU1MNo2iNM7j52tKEyHHjw4acmHDiRYTU0I16oifyN0u1mMl3aW3bTD7bzqZ7eNvHG4XazGS7tLbtpvjfd2zngYYNJG20zxPVABOKAAAAAAAMvQ1Ay5ChAc1nknR/Lb4OgAoE8AAAAAAAAAAAAAAAAAAAAAAAAtNzebH6zP7izlYubzY/WZ/cWcjRVK1Z2QswlCzb3U+erbzqZ7eNvHG4XazGS7tLbtph9t51M9vG3jjcLtZjJd2lt201RlGzngZ4SkbzWeqACcUAAAAAAAZYimpmVtXIhRgOazyTtIctvgkdI1FSgTiQI1FQCQI1FQCQI1FQCQI1FQCQI1FQCQI1FQCQI1FQCRw5UVALZczmx+szwcWcq9y+bH6zPBxaCNFUzVnZC1CULNvdT56tvOpnt428cbhdrMZLu0tu2mH23nUz28beONwu1mMl3aW3bTTGUbOeBnhKRvNZ6oAJxQAAAAAABlLVyIasZQ1cidCFGA5rPJO0hy2+CdRUjUVKBNJVFSNT9tn2ZOTPK/w7Uc1uRYjnojUXR81PGmkZSVVkPWWVaWRElPyVFT2cL2roZt04DC9q6GbdOBz27r5IdZu++CnjVFT2cL2roZt04DC9q6GbdOA27r5IJu++CnjVFT2cL2roZt04DC9q6GbdOA27r5IJu++CnjVFT2cL2roZt04DC9q6GbdOA27r5IJu++CnjVFT2cL2roZt04H4rQsudlkasw1EY5eSj2vRza6Pkp9MvXbSyI0h8tOXjKStMqiH46ipGoqfZzJVFSNRUAttyubH60PwcWkq1yebMdaH4OLSRoumas7IW4ShZt7qfPVt51M9vG3jjcLtZjJd2lt20w+286me3jbxxuF2sxku7S27aaYyjZzwM8JSN5rPVABOKAAAAAAAMmYuROhDWTJGrkToQo6P5rPJN0hyW+CdRUjUVKJOlJVLvczN39s/+lhRql5uXmzu2f8A0tMsZRLYa4GlsUsIAI5YAAAAAAAAAB4F8c1/zGeDj3yv3yzX/MZ/cdoemZ/k4xFC1/BR6ipGoqXCFKSqKkaioEpcLkc2Y60PwcWoqlx+bMdaH4OLWRYumas7IW4ShZt7qfPVt51M9vG3jjcLtZjJd2lt20w+286me3jbxxuF2sxku7S27aaYyjZzwM8JSN5rPVABOKAAAAAAAMiYuROhDXTIYa5E6EKWj+azyTdI8lvgnUVOVFSjITTtS83JzZ3bP/pYUWp6Vk21NyiObBRkSE5eWrHItEWlKpToT+BwiHbTbtWWd53hnrLt5rNbjSgUfGM9qIf7+IxjPaiH+/iTpk+qS8pT1xXgpeAUfGM9qIf7+IxjPaiH+/iJk+qS8T1xXgpeAUfGM9qIf7+IxjPaiH+/iJk+qS8T1xXgpeAUfGM9qIf7+IxjPaiH+/iJk+qS8T1xXgpeCv3yzVO1Z4OPHxjPaiH+/iefatuTk21rIrWQ4TV5f5bEXKtKVVV6V/idHMI9ZeI0u5Dk+i3TTtWUX3VDzKipyoqVJCWdqKnKiokBcLjc2Y60PwcWwqdxebMdaH4OLYRIumas7IXIShZt7qfPVt51M9vG3jjcLtZjJd2lt20w+286me3jbxxuF2sxku7S27aaYyjZzwM8JSN5rPVABOKAAAAAAAMgYuROg14x5i+qn6eBS0dzWeSZpHkt8EwcqKlEmnQcqKgHQcqKgHQcqKgHQcqKgHQcqKgHQcqKgHQcqKgHQcqKgFzuJzZjrQ/BxbSpXD5sx1of9xbSJF0zVnZC5B0LOeKnz1bedTPbxt443C7WYyXdpbdtMPtvOpnt428cbhdrMZLu0tu2mmMo2c8DhCUjeaz1QATigAAAAAAcMchr6qfp4GxmNQ19VOj/AEKejtzdnkmaS5LfB/WoqRqKlEmEqipGoqASqKkaioBKoqRqKgEqipGoqASqKkaioBKoqRqKgEqipGoqASqKkaioBdbhcyZ60PwcW4qFwebM9aH4OLeQ4umas7IXYOhZzxU+erbzqZ7eNvHG4XazGS7tLbtph9t51M9vG3jjcLtZjJd2lt200xlGzngcISkbzWeqACcUAAAAAADhjMJcidCeBsxjEJcidCeBT0dubs8kvSW9i3wf0ByoqUiadByoqAdByoqAdByoqAdByoqAdByoqAdFTlRUA6DlRUA6DlRUAutwOZM9aH4OLgU/8P8AmzPWh+Di4EOMp2rOyF2DoWc8VPnq286me3jbxxuF2sxku7S27aYfbedTPbxt443C7WYyXdpbdtNEZRs54HCEpG81nqgAnFAAAAAAA4YtCX1U6ENpMUhL6rehPAp6O3N2eSXpLk/t4P6VFSNRUpEwlUVI1FQCVRUjUVAJVFSNRUAlUVI1FQCVRUjUVAJVFSNRUAlUVI1FQCVRUjU7UAvH4fcyZ60PwcXEpv4e8yZ60PwcXIhxlO1Z2L0HQM54qfPVt51M9vG3jjcLtZjJd2lt20w+286me3jbxxuF2sxku7S27aaIyjZzwOEJSN5rPVABOKAAAAAABwxKEvqp0IbahiMLmp0J4FTR25uzyS9Jcn9vB/QHAUpCWdBwCQHQcAkB0HAJAdBwCQHQcAkB0HAJAdBwCQHQcAkBefw75kz1oXg4uZS/w85kz1oXg4uhCjKZqzshfg6BnPFT56tvOpnt428cbhdrMZLu0tu2mH21nUz28beONwu1mMl3aW3bTRGUbOeBwhKRvNZ6oAJxQAAAAAAOKYfCX1U6E8DcF4mHQ+anQngVNG89nkl6T5LfB/WoqQBTJZOoqQABOoqQABOoqQABOoqQABOoqQABOoqQABOoqQABOoqQABfPw75kz1oXg49q8dvydnwViR1R0ZyObDlkWj4jkT2JoT2VX3dNEWj2HeSWs2XmHPT8+biOhpDl0WnKVEWqqvualUKVadozk3FdHnIixo7/ANGtT3Nanuan+8pMeQyvH7TTX/Pf2KruJR3Dsom/t7n540Vz3uiPWsWI5YrlpTK5ar4m93bRUkZJFyL/AIaWyf5bTLbm3Rjz7kjTaOgWQ1fbla+Kqf8AS3/10r+iZfZsbGNaiNYiNaiI1GolERE9yHKOeMqqMJwznMnWCdtIitLxJgAwG4AAAAAAi72LpymHojm+q9OS9vqq3QqZFQ3IrdoXQsmPEdFd+ZAe5Vc5sN7Ua5V9rqKi5TbBxDDlWtfcsmH+mKNh23yM6vCXGT8MyqKmi4EsfWzG1h+UYEsfWzG1h+U3z5xXgYPT331eZ1UVNFwJY+tmNrD8owJY+tmNrD8onzivAenvvq8zqoqaLgSx9bMbWH5RgSx9bMbWH5RPnFeA9PffV5nVRU0XAlj62Y2sPyjAlj62Y2sPyifOK8B6e++rzOqipouBLH1sxtYflGBLH1sxtYflE+cV4D0999XmdVFTRcCWPrZjaw/KMCWPrZjaw/KJ84rwHp776vM6qKmi4EsfWzG1h+UYEsfWzG1h+UT5xXgPT331eZ1UVNFwJY+tmNrD8owJY+tmNrD8onzivAenvvq8zqoqaLgSx9bMbWH5RgSx9bMbWH5RPnFeA9PffV5lNq+1vQ7/AELPcq5b5rkTNpNWHZ2R7IC1a+N810M/mvRlW7MuVd1FY98qseKzkryokzFci0y+s2vJXopQshkfxuskjv2NcPBavu89yENjGNRsNqMhtRGIxGoiIiZERE9yH9ACcUQAAAAAAAAAAAAAAAAAAAAAAAAAAAAAAAAAAAAAAAAAAAAAAAAAAD//2Q==;" parent="1" vertex="1">
          <mxGeometry x="760" y="100.00000000000001" width="88.5" height="88.5" as="geometry" />
        </mxCell>
        <mxCell id="uVOMfWOmMJlPaPXSzogf-39" value="" style="edgeStyle=segmentEdgeStyle;endArrow=classic;html=1;curved=0;rounded=0;endSize=8;startSize=8;" parent="1" edge="1">
          <mxGeometry width="50" height="50" relative="1" as="geometry">
            <mxPoint x="420" y="770" as="sourcePoint" />
            <mxPoint x="130" y="460" as="targetPoint" />
          </mxGeometry>
        </mxCell>
        <mxCell id="uVOMfWOmMJlPaPXSzogf-40" value="" style="endArrow=classic;html=1;rounded=0;" parent="1" edge="1">
          <mxGeometry width="50" height="50" relative="1" as="geometry">
            <mxPoint x="652.6" y="675" as="sourcePoint" />
            <mxPoint x="702.6" y="625" as="targetPoint" />
          </mxGeometry>
        </mxCell>
        <mxCell id="uVOMfWOmMJlPaPXSzogf-42" value="" style="endArrow=classic;html=1;rounded=0;" parent="1" edge="1">
          <mxGeometry width="50" height="50" relative="1" as="geometry">
            <mxPoint x="540" y="670" as="sourcePoint" />
            <mxPoint x="540" y="617.5" as="targetPoint" />
          </mxGeometry>
        </mxCell>
        <mxCell id="uVOMfWOmMJlPaPXSzogf-43" value="" style="endArrow=classic;html=1;rounded=0;" parent="1" edge="1">
          <mxGeometry width="50" height="50" relative="1" as="geometry">
            <mxPoint x="430" y="677.5" as="sourcePoint" />
            <mxPoint x="380" y="625" as="targetPoint" />
          </mxGeometry>
        </mxCell>
        <mxCell id="uVOMfWOmMJlPaPXSzogf-45" value="" style="endArrow=classic;html=1;rounded=0;" parent="1" edge="1">
          <mxGeometry width="50" height="50" relative="1" as="geometry">
            <mxPoint x="770" y="374" as="sourcePoint" />
            <mxPoint x="650" y="374.47" as="targetPoint" />
          </mxGeometry>
        </mxCell>
        <mxCell id="uVOMfWOmMJlPaPXSzogf-47" value="" style="endArrow=classic;html=1;rounded=0;" parent="1" edge="1">
          <mxGeometry width="50" height="50" relative="1" as="geometry">
            <mxPoint x="230" y="360" as="sourcePoint" />
            <mxPoint x="400" y="360" as="targetPoint" />
          </mxGeometry>
        </mxCell>
        <mxCell id="uVOMfWOmMJlPaPXSzogf-48" value="" style="endArrow=classic;html=1;rounded=0;" parent="1" edge="1">
          <mxGeometry width="50" height="50" relative="1" as="geometry">
            <mxPoint x="536.67" y="190" as="sourcePoint" />
            <mxPoint x="536.9599999999999" y="290" as="targetPoint" />
          </mxGeometry>
        </mxCell>
        <mxCell id="uVOMfWOmMJlPaPXSzogf-49" value="" style="endArrow=classic;html=1;rounded=0;" parent="1" edge="1">
          <mxGeometry width="50" height="50" relative="1" as="geometry">
            <mxPoint x="300" y="208" as="sourcePoint" />
            <mxPoint x="420" y="300" as="targetPoint" />
          </mxGeometry>
        </mxCell>
        <mxCell id="uVOMfWOmMJlPaPXSzogf-50" value="" style="endArrow=classic;html=1;rounded=0;" parent="1" edge="1">
          <mxGeometry width="50" height="50" relative="1" as="geometry">
            <mxPoint x="770" y="207.23" as="sourcePoint" />
            <mxPoint x="640" y="300" as="targetPoint" />
          </mxGeometry>
        </mxCell>
        <mxCell id="uVOMfWOmMJlPaPXSzogf-52" value="" style="endArrow=classic;html=1;rounded=0;" parent="1" edge="1">
          <mxGeometry width="50" height="50" relative="1" as="geometry">
            <mxPoint x="536.67" y="502.5" as="sourcePoint" />
            <mxPoint x="536.67" y="450" as="targetPoint" />
          </mxGeometry>
        </mxCell>
        <mxCell id="uVOMfWOmMJlPaPXSzogf-53" value="" style="endArrow=classic;html=1;rounded=0;" parent="1" edge="1">
          <mxGeometry width="50" height="50" relative="1" as="geometry">
            <mxPoint x="931.6199999999999" y="470" as="sourcePoint" />
            <mxPoint x="931.9099999999999" y="570" as="targetPoint" />
          </mxGeometry>
        </mxCell>
        <mxCell id="uVOMfWOmMJlPaPXSzogf-54" value="" style="endArrow=classic;html=1;rounded=0;" parent="1" edge="1">
          <mxGeometry width="50" height="50" relative="1" as="geometry">
            <mxPoint x="353.59" y="508" as="sourcePoint" />
            <mxPoint x="413.59" y="448" as="targetPoint" />
          </mxGeometry>
        </mxCell>
        <mxCell id="uVOMfWOmMJlPaPXSzogf-55" value="" style="endArrow=classic;html=1;rounded=0;" parent="1" edge="1">
          <mxGeometry width="50" height="50" relative="1" as="geometry">
            <mxPoint x="705.0600000000001" y="502.5" as="sourcePoint" />
            <mxPoint x="650" y="450" as="targetPoint" />
          </mxGeometry>
        </mxCell>
        <mxCell id="uVOMfWOmMJlPaPXSzogf-56" value="" style="shape=image;verticalLabelPosition=bottom;labelBackgroundColor=default;verticalAlign=top;aspect=fixed;imageAspect=0;image=data:image/jpeg,/9j/4AAQSkZJRgABAQAAAQABAAD/2wCEAAoHCBYWFRgWFhUYGRgaGhwcHBocHBocHBwZHBoZHh0aHh8cIS4lHh4rIRocJzgmKy8xNTU1HCQ7QDs1Py40NTEBDAwMEA8QGhISHjQrJCM9NDQ0NDQ2MTE0NjE0MTE0NDQ0NTQ0NDExNDQ0NDE0MTQ0NDE0NDQ1MTQ0MTQ0NDQ0Mf/AABEIALIBGwMBIgACEQEDEQH/xAAbAAEAAwEBAQEAAAAAAAAAAAAAAgMEBQYBB//EADoQAAICAAUCBQEHAwIFBQAAAAECABEDBBIhMUFRBSJhcYGRBhMyobHR8CNCwRRSFnKS4fEVM0NTYv/EABkBAQEBAQEBAAAAAAAAAAAAAAABAgMEBf/EACURAQEAAgEEAgICAwAAAAAAAAABAhEDEiExQVFhBBNxkQUjMv/aAAwDAQACEQMRAD8A/TvtB4t/psMMEOIxaggDElQCzUFUmwitW1XQJF3MT/a/AGo+YhS4BVsNtejTq06XP+7g0djPSxA4D/aNdOOQjhsLSNLAeZ3oIg0FiSWIGw3va5RkPtGcTFw00L56DLZ1ofu2dmZSLCqyfdkmvMw67T00QPIn7X0GP3JIBYr5gt4YXUmJ/U02GAc+WxSNual+P9rsPS+hWLIXAvTpYoEJ001tYcUFBOxsCeniB5l/tSm9KeGK2V3C4WHisGo7Eh6AF7rvOn4r4j91hu4WyhS7BVadwppmpTQJ60OtTccJTdqN6vYb1xftLYHnU+1WEdPkxBrKql6BrZvuvKPPz/WU+ysRYG9GD9qw+Bi4iYTa8PAXFKkrpJbDDhQwbcC+dro1xPUxA87/AMUYY1go5Ka9VaKGi9RPn8u44JsAgmhvJr9psIpjPpesHTq/B5i1UFOqjuRRsA2CCQbnfiB5fNfa9AjMiPq/t16FDHz/AP7vlCK/EbFAy7F+0+GjaWRyWBZNOk6ktwrbsNm0E3+EaksgsJ6KQVQAABQGwroIHC8T+0+Fgsyur2ihjRTrp2rXf9wFkab2u6lX/F+BZGl9iwJ8poKUtqDXVOD7A+09AmEoLEAAtWo9TQoX8S2B5xftXhGgMPFtgKWkDWWKVRexTAqW/CCKuyJ9T7TLpxXKnRhsibFNWpmKmxroUR+E0w6ieiiB5sfa3CIYhHIUMSbw68ugVev8ROIo08i9wJ0PC/Fkx70K40hSSQB+MalHPJUq3sy9dhvwsJUUKoAUbADYAT5hYKrelQNRLGurHknudhAuiIgIiICIiAiIgIiICIiAiIgIiICIiAiIgIiICIiAiJFmA5NQJRKGzKjr+sj/AKxfX6QNMSgZle8+HNL3v4MDREyf61ezfT/vLUzCnr8dYF0REBEjqElARI6ul7yUBESLMByagSifAZ9gIiICIiAiIgIiICIiAiJEtXMCUjqHec/HzBOwND0JlEuk27MTjAnvPrOTyT9Y0bdHGxwvc+0o/wBUTvYrsQR+lzLqPFn6xA1tiUACTZ3um4+sqxX6N9Ddr8+0iqM/A2+gliJ1fpxdUfmBHK4Snk/HeXvlLvzEDt0mZ8Mk7Lseo3/TadDDBA8xBMDlutEjtPkniA6iOtzRh5L/AHH4H7wMgE6WXwtI9esi2CF3VQT6n9LlmExP4gB2gWyGJhhhRk5lxs0Bsu5/ISKmmAq7/r+suBnDTNI5I12R771zXSvUS5HI6ke0TV8Jt1qmdMUsTVAD5P0mU5pu/wD39ZE4zH+4y6Nt5xQNid6lWLml4A1fpMRYnkxGjaw43YBfa/8AxLEzbWLqvbf9ZmmLP5oqQq7EiyeaHAr1NH6TGeWOGNyviDu/6xfX6SX34ItSPnaecyebbUFY6geDQBBoneqBFA9J0ZOPPHkx6sRvGZF0SPqfy2l6uDwROTE6aNuzIlgJyQ56E/UwHPc/Uxo27ETDgO54I+Qf1E1qT1G/5SKnERASrEW9qB95bEDImTANnf06S77laqh9JbEDmZnCCna64+f4ZTNufqh3vb/MxSo53ipfy6NWne9F3e1fh3rn+VNeU1aF1/irfvztfrVX6yx3Ci2IA7mRwsdX/CwNcjqPg7zEkmVu/PpNNuDmtIoiwO3M+5zFvy9plhVJ2HM2qSuQKBre/mdLBxgwsTLgYBvzKPc/t1l+Fg6SfMSD09e8C7SO0lESKSGJiBRZk5DEcAWTQgc/G8RGHeuzZ8oAF+3xM2DnUxLKgg7WDyCSe1gjmU59Ex//AG3UkG9h36GtyD0Pp1mXDwxl93JLP0A4C+/qeZyuWUy326flm27+mnDyaYVsupqU0CBsKulrcnat5ky3jIYkOK2BtbYV6/uOd5rxM4h8ivTMvlNGgWFrvVA7g16iebymQdHAGEy1sQFPm24BH496N/nOPNyZcfT+ubnvXcv09aDe44n2V5fLMiKrDevjvV+nHxL2w6UNfP5e57z2S7ioRM3iGAzoVU72NjsCOx/nSMhgsiBWO9nbkAdAP51meq9WtdvkaZlzuV10ykBhtvwR29K/yZqiMsMcsbjl4owZTJFWDORtwBZ3O1kkDoTt6zfESYYY4Y9OM7BL8AoB5ufmUSzAwySKvnmbG9MJRuB05mbLodTAgHvY69K9JdgMASo6E9+JpkV8n2IgIiICIiAiIgY89hnZh05mKdZlsVON4ninDTVVmwtcC6u/agTFyklt9JWDxS9SdqNf82351/mUZW/vErnf/po38cfNTZ4Xj/fMUdV41bDYgEXYN72R/BO1g+H4a3pQC+anj/VOTknLL2JdxjVCTQFzo4OCFA236nrIYC0SBRBPe+k0z2K+xEQEREBMufwwyFWNA7H1sHaaCa3nNx8Yt7DiBj8Nyq4JLWXYgDcAAAb+tn1mnM4SYxGoUQDR1EfHz/iRiSYSTWuzP0+P4Jh6lYEiip035SVqud+g2vp7zXiZY7kcHev5tMpPSc3P42MHATVVCqFgtvYY9Bx2/bN1hNyefg8Ok3a+JXj51cNTqBOo0K5vn24BlzrXseD3ErxcujjS462GF7Hf95u71enyqOBjB1DLwfrtsQfmfDmU1aNQ1dr+a9/SXYGVoBVqh0vf333PvOfi+EMMTUWpS2uq3u7q7rn+dZm3KSam77Tu3xEEzormeMY7rpAYqDdkbWRVC+nU+vxL/C8VnS2N7kA9x3+ti/SZX8VD2EUFAa1vwxH+1eo9TUrxfHRhi3RiLAtANidhYJ77bTxTn45zWdf1r1t0n4/J/wBad07o2lQWCsVG9lq2995i8Ezz2yvbKBsaFhr42A9TXSphXxnW14RoLVkr5rPSj035679p6HwvNHES2A1KaNccA2O2xm/2458kmN8f1XP20ZeySSKutpoiJ6FIiICIiAiIgIiIHyZ85llxFKtwe3II4ImiJLNjk5Pwz7kkr5idrY7122qpemPuS19q6fSb5Xi4QYV9DGMmM1ImnxsIEg8V8H8pyfDsnjJiszva72bvVfFDp/jgXN2ZdlAFjfttxM64rDhj/PeS4y2X4V1omHAzdCm+s1o4IscTQnERApzJ8re05k65WxRnPxsuwOwsdK/zLEqiJauXY/2/XaVspHIIlHyIiBahBBU88qfXt8yGHhluB+0zrmULada6uKvr29/SdDKlmbcmh9PSTfwL8vgadzuZa6AiiLk5TmMZUUsxoDmS1XOGGbrrdSnx9NGXYDliqk+hO49jx8zXl8ZcXzpyDRBFb+vwZfncsuIjIeGHPY8g/B3mcr1Y9r5XjsmUt8SvC5Vxp0dQSa9CxIPtv9QZn8XxQEKk+ZqAHXkG/j9p98e8IxEZbXeyAwvSRV2CNwduP/M4GIhuj1FlvTjrvf8APSfEv4v+3V/nT7/FeLOyTKd/TZ4VmGDodX4ygba9mobAVxc/U8hlwiADfqT1J63+nxPz77K+GHExlcghEYNdbFl3VR80T6D1n6LhoQT2PrfXYT6/Fx4495Hzv8hOOcsmGu076+WiIidngIiICIiAiIgIiICIiAiIgcvMPbH0NfSVTZncL+4fP7zHKgT34k8tnANlKsOtG/0mDH8zkHhaodLIu/zH5yDpfGxHB6g/zp1nh5fzphydGu0812x4bcd7d/DzSnbj3mmcnIjXpPAoMfnpOtPa5EREBMeeU7HoP8zZKcyRpN9oHMnxhYIBokHft6z7Obls+7YpQqKthW+pavc79a7DkSZZSWS+2ds2WyDlggUiqs/2rRHmB4NciexRABQFTBk283uD+82nFFgdTOfHxTjlk9rFspx8FXUqwsHmXROqsuTya4YIW9zZJNkmaYiSSSagzZ7KLioVb3BHIPQicvC8Hw9DLoX7yjTuFY3Ro3XA9J3ZBkB5AMnTN713Pe3mPB/D8VH1aCgVWvjc1sNj5t979PWeiS6F3d/oeN5Z92KoEj5P+ZB8QKd2PHH86+8YYTCaiSaRfGZbtb35Hb15k8PMq3p7yGFih7BG3v8ASRwsNSPLsQeevpz0mhoR7/nPqPSWSJF8z4u213+sKnERAREQEREBERAREQE5ubUBtu37zpTnZ7n4/wAmWJXPx8Ek6lq+CDtdcG+hkEwHby6dN87gmvSr39ek2TVksL+4+wnnz/G48suqzu3jyWTUTyeBpG4rgAdgJriJ3ZIiICV4yagRLIgcaJdmMGm2B334lmWy5uyKA/WVF+XQBQa3rfvKsinLfH7zbEikREBERAREQMOJnDuFHyZlktBJOkEi+0s/0jV09rlRQDLsti6T6HmUyWHhljQ/ggdLFvSa5o171tPJZa/vF0395qH/ADXfm1da5u57ECfDOHJxddl3rRp9n2InZSIiBzcz4kFJUAsRzvQB7X3l2Tzi4l0CCOQfXqO4nFzClWYNzqYi+oJJsd+Zq8HS3LDgKRfQklTQ71p39xPBhz8l5rhZ2asmtu5ERPeyREQE52dHm+BOjMOeQ7HpwfSWJXJ8E8IZGLMRVVsTbGwdTWPT15M9HM+VPlFG/wCcS9T6TExmM1CTSURE0pERAREQEREBERAREit9YEoiICIiAiIgZszhA70SeNpZhYQUbCWxAiTW5lDEsKXjbzftLnQHkXJwIgfMlEQERMrZ7DBouoN1RIBv5gXPhg7EAj1F/rJAVsJDCxlYWrKw7gg/pJOwAJPAFn4gTiYxn8Lb+ou4vcgfW+PaaEcMLBsHgiBZEqxsZVFsaHeRwcyjfhZW44INXxdcQL4iZ8TNIp0s6g1dE1tddYFoQDgCfdQur3kcLEVgGUgg8ESQAECUSgZhSdOtdXaxf056GXwESDuALJoSgZ7CP/yJ/wBQ/f1gaoleHiKwtWDDuCCPyn13CiyaECcTJ/6hhf8A2KfQEE8XwJLDzmGx0q6k9gwvvxA0xEzNm0BKllBWrBNcixzA0xIYbhhYIIPUQ7gCyaECcTKPEMI1/UTfjzCaoCJRjZlFIDMFvi9htXXjqJ9wsdGvSytXNEGvpAuiIgIiICIiAiIgJ5XxDxzDXGbDGFhsQFA4LNiNiphkaavSDiDc8nUNuZ6qZ8fKo96kVrFGwD5bBrfpYB+IFPhmIrYasoABG9Lp3GxFdKIIreacRwAS2wAJN9gN4w8MKAqgAAUABQAHAAHAlsDyeB4urguuFhEDHTDO2o6HGHpZmApDTnY3uNPqPUKgAoAADgDYSl8lhkhjhqWDagSoJ1Uo1e9Ku/oO01QMXiLhcMsdAqjbAst2K2G5PYDcmpysj4uPv8PB+7TDd8PViLYDLiBcNhhgV5qVjZ9q612szl0ddLqrLYNMARYNg0eoIufcPLoumlUaRpWgPKDVgdhsPpAvnJ8VenwwERyzBSpFto1LqYbUFUEsb2NAckTrTLj5PDdldkVmX8LEAkbg7HpuAfiBm8IzJcOpVVOG5SlBXbSrA6T+H8XrYo9aHTlGXyyIKRFUXdAAC++0vgefx83pfFKrheSqfSx/qMSNBrd3II2XcFgPfs5Z2KKWXSxUErd0SN1vrR2uZ38KwDqvBQ6jqbyjdruz62SbmvDQKAAKAFADgAcCBDNXoalVjRpWNAnsTRofBnB8I8TTHcK2Eigqv9t6n+6wsRqboAMQCiN6u+k9IRM2DksNG1KiKdIWwoB0igFsdNht6DtAuw0AFAADsBQlOfYjDchFYhSQrGlNC6Jo19DNUg6gggiwdiPSBxfDscYjj+lhlThqxZV3VmCkIxIokhmNDcAC/wAQnVTKoDYRAe4UA/pIYOQwkYsmGisRRKqASNh09APoJrgJwfFMzpxGVkwqGGGVmBYklgunSFskmgACSSR7HvTLmclh4n40V+PxKDwbHPrvA+5P8C2gQlQSgqlJFldtjRuSzN6WpVY0aVjSk1wTRofBk8NAoCgAACgBwAOBJwPM+E+ILiul4OEFZa2ALBhh4WKen4f6le6g/wB23p5lwclhq2pcNFbSFsKAdIqhY6bDb0HaaoHD8fz4w9H9NXsMx1C9KqUDHjyr5hbcDbY3t18PBVfwqFvsAP0kMxlUetaK2k2NQBo9xfE0QEREBERAREQEREBERAREQEREBERAREQEREBERAREQEREBERAREQEREBERAREQEREBERAREQERED/2Q==;labelBorderColor=#000000;strokeWidth=2;imageBorder=default;" parent="1" vertex="1">
          <mxGeometry x="830" y="580" width="235.3" height="148" as="geometry" />
        </mxCell>
        <mxCell id="uVOMfWOmMJlPaPXSzogf-58" value="Maps, Incidents, Alerts" style="whiteSpace=wrap;html=1;" parent="1" vertex="1">
          <mxGeometry x="887.65" y="740" width="120" height="60" as="geometry" />
        </mxCell>
      </root>
    </mxGraphModel>
  </diagram>
</mxfile>
